<svg width="150" height="139" viewBox="0 0 150 139" fill="none" xmlns="http://www.w3.org/2000/svg">
<path d="M43.0014 60.9328L65.7918 81.5878C67.3764 83.0239 69.9522 82.8799 71.3391 81.2778L113.477 32.5986C114.693 31.1939 116.865 30.8827 118.482 31.8816L125.328 36.1111C127.165 37.2457 127.552 39.5976 126.164 41.1879L74.3265 100.573C72.9882 102.106 70.5429 102.301 68.9415 101.003L32.3493 71.3325C30.7325 70.0216 30.6324 67.7224 32.13 66.295L37.6907 60.9948C39.1374 59.6159 41.5177 59.5881 43.0014 60.9328Z" fill="#5A5959"/>
<path fill-rule="evenodd" clip-rule="evenodd" d="M7.5 0C3.35786 0 0 3.11162 0 6.95V132.05C0 135.888 3.35787 139 7.5 139H142.5C146.642 139 150 135.888 150 132.05V6.95C150 3.11162 146.642 0 142.5 0H7.5ZM126.25 14.4792H23.125C18.9829 14.4792 15.625 17.5908 15.625 21.4292V116.992C15.625 120.83 18.9829 123.942 23.125 123.942H126.25C130.392 123.942 133.75 120.83 133.75 116.992V21.4292C133.75 17.5908 130.392 14.4792 126.25 14.4792ZM65.7918 81.5878L43.0014 60.9328C41.5177 59.5881 39.1374 59.6159 37.6907 60.9948L32.13 66.295C30.6324 67.7224 30.7325 70.0216 32.3493 71.3325L68.9415 101.003C70.5429 102.301 72.9882 102.106 74.3265 100.573L126.164 41.1879C127.552 39.5976 127.165 37.2457 125.328 36.1111L118.482 31.8816C116.865 30.8827 114.693 31.1939 113.477 32.5986L71.3391 81.2778C69.9522 82.8799 67.3764 83.0239 65.7918 81.5878Z" fill="#5A5959"/>
</svg>
