<?xml version="1.0" encoding="UTF-8" standalone="no" ?>
<!DOCTYPE svg PUBLIC "-//W3C//DTD SVG 1.1//EN" "http://www.w3.org/Graphics/SVG/1.1/DTD/svg11.dtd">
<svg xmlns="http://www.w3.org/2000/svg" xmlns:xlink="http://www.w3.org/1999/xlink" version="1.1" width="400" height="400" viewBox="0 0 400 400" xml:space="preserve">
<desc>Created with Fabric.js 3.6.2</desc>
<defs>
</defs>
<g transform="matrix(4.17 0 0 4.17 168.52 256.25)" id="Layer_1"  >
<path style="stroke: none; stroke-width: 1; stroke-dasharray: none; stroke-linecap: butt; stroke-dashoffset: 0; stroke-linejoin: miter; stroke-miterlimit: 4; fill: rgb(63,81,181); fill-rule: nonzero; opacity: 1;"  transform=" translate(-16.44, -37.5)" d="M 24 43 l -5 -12 c 0 0 -11 1.99 -11 13 h 16.888 c -0.263 -0.455 -0.507 -0.921 -0.719 -1.407 L 24 43 z" stroke-linecap="round" />
</g>
<g transform="matrix(4.17 0 0 4.17 221.13 256.25)" id="Layer_1"  >
<path style="stroke: none; stroke-width: 1; stroke-dasharray: none; stroke-linecap: butt; stroke-dashoffset: 0; stroke-linejoin: miter; stroke-miterlimit: 4; fill: rgb(48,63,159); fill-rule: nonzero; opacity: 1;"  transform=" translate(-29.07, -37.5)" d="M 32.25 35.45 c 0.32 -0.965 0.931 -1.797 1.723 -2.404 C 31.409 31.448 29 31 29 31 l -4.831 11.593 c 0.212 0.485 0.455 0.952 0.719 1.407 H 30 C 30 44 32.088 35.937 32.25 35.45 z" stroke-linecap="round" />
</g>
<g transform="matrix(4.17 0 0 4.17 200 229.17)" id="Layer_1"  >
<polygon style="stroke: none; stroke-width: 1; stroke-dasharray: none; stroke-linecap: butt; stroke-dashoffset: 0; stroke-linejoin: miter; stroke-miterlimit: 4; fill: rgb(255,152,0); fill-rule: nonzero; opacity: 1;"  points="0,6 -5,0 -5,-6 5,-6 5,0 " />
</g>
<g transform="matrix(4.17 0 0 4.17 200 179.17)" id="Layer_1"  >
<path style="stroke: none; stroke-width: 1; stroke-dasharray: none; stroke-linecap: butt; stroke-dashoffset: 0; stroke-linejoin: miter; stroke-miterlimit: 4; fill: rgb(255,167,38); fill-rule: nonzero; opacity: 1;"  transform=" translate(-24, -19)" d="M 35 19 c 0 1.106 -0.896 2 -2 2 c -1.106 0 -2 -0.894 -2 -2 c 0 -1.105 0.894 -2 2 -2 C 34.104 17 35 17.895 35 19 M 17 19 c 0 -1.105 -0.896 -2 -2 -2 c -1.106 0 -2 0.895 -2 2 c 0 1.106 0.894 2 2 2 C 16.104 21 17 20.106 17 19" stroke-linecap="round" />
</g>
<g transform="matrix(4.17 0 0 4.17 200 177.54)" id="Layer_1"  >
<path style="stroke: none; stroke-width: 1; stroke-dasharray: none; stroke-linecap: butt; stroke-dashoffset: 0; stroke-linejoin: miter; stroke-miterlimit: 4; fill: rgb(255,183,77); fill-rule: nonzero; opacity: 1;"  transform=" translate(-24, -18.61)" d="M 33 13 c 0 -7.635 -18 -4.971 -18 0 v 7 c 0 4.971 4.028 9 9 9 c 4.971 0 9 -4.029 9 -9 V 13 z" stroke-linecap="round" />
</g>
<g transform="matrix(4.17 0 0 4.17 200 147.92)" id="Layer_1"  >
<path style="stroke: none; stroke-width: 1; stroke-dasharray: none; stroke-linecap: butt; stroke-dashoffset: 0; stroke-linejoin: miter; stroke-miterlimit: 4; fill: rgb(66,66,66); fill-rule: nonzero; opacity: 1;"  transform=" translate(-24, -11.5)" d="M 24 4 c -6.075 0 -10 4.926 -10 11 v 2.285 L 16 19 v -5 l 12 -4 l 4 4 v 5 l 2 -1.742 V 15 c 0 -4.025 -1.038 -8.016 -6 -9 l -1 -2 H 24 z" stroke-linecap="round" />
</g>
<g transform="matrix(4.17 0 0 4.17 200 179.17)" id="Layer_1"  >
<path style="stroke: none; stroke-width: 1; stroke-dasharray: none; stroke-linecap: butt; stroke-dashoffset: 0; stroke-linejoin: miter; stroke-miterlimit: 4; fill: rgb(120,71,25); fill-rule: nonzero; opacity: 1;"  transform=" translate(-24, -19)" d="M 27 19 c 0 -0.551 0.448 -1 1 -1 s 1 0.449 1 1 s -0.448 1 -1 1 S 27 19.551 27 19 M 19 19 c 0 0.551 0.448 1 1 1 s 1 -0.449 1 -1 s -0.448 -1 -1 -1 S 19 18.449 19 19" stroke-linecap="round" />
</g>
<g transform="matrix(4.17 0 0 4.17 200 254.17)" id="Layer_1"  >
<polygon style="stroke: none; stroke-width: 1; stroke-dasharray: none; stroke-linecap: butt; stroke-dashoffset: 0; stroke-linejoin: miter; stroke-miterlimit: 4; fill: rgb(255,255,255); fill-rule: nonzero; opacity: 1;"  points="0,6 -5,-6 0,-5 5,-6 " />
</g>
<g transform="matrix(4.17 0 0 4.17 200 256.25)" id="Layer_1"  >
<polygon style="stroke: none; stroke-width: 1; stroke-dasharray: none; stroke-linecap: butt; stroke-dashoffset: 0; stroke-linejoin: miter; stroke-miterlimit: 4; fill: rgb(211,47,47); fill-rule: nonzero; opacity: 1;"  points="1,-2.5 1.62,1.63 1.13,2.8 0,5.5 -1.62,1.62 -1,-2.5 -2,-3.5 0,-5.5 2,-3.5 " />
</g>
<g transform="matrix(4.17 0 0 4.17 254.17 254.17)" id="Layer_1"  >
<path style="stroke: none; stroke-width: 1; stroke-dasharray: none; stroke-linecap: butt; stroke-dashoffset: 0; stroke-linejoin: miter; stroke-miterlimit: 4; fill: rgb(96,125,139); fill-rule: nonzero; opacity: 1;"  transform=" translate(-37, -37)" d="M 45.2 38.1 c 0.1 -0.4 0.1 -0.8 0.1 -1.1 s 0 -0.8 -0.1 -1.1 l 2.3 -1.7 c 0.2 -0.2 0.3 -0.5 0.2 -0.7 l -2.3 -3.9 c -0.1 -0.2 -0.4 -0.3 -0.7 -0.2 l -2.6 1.2 c -0.6 -0.5 -1.3 -0.9 -2 -1.2 l -0.3 -2.9 c 0 -0.3 -0.3 -0.5 -0.5 -0.5 h -4.6 c -0.2 0 -0.5 0.2 -0.5 0.5 l -0.3 2.9 c -0.7 0.2 -1.4 0.6 -2 1.1 l -2.6 -1.2 c -0.3 -0.1 -0.6 0 -0.7 0.2 l -2.3 4 c -0.1 0.2 0 0.5 0.2 0.7 l 2.3 1.7 c -0.1 0.4 -0.1 0.8 -0.1 1.1 s 0 0.8 0.1 1.1 l -2.3 1.7 c -0.2 0.2 -0.3 0.5 -0.2 0.7 l 2.3 3.9 c 0.1 0.2 0.4 0.3 0.7 0.2 l 2.6 -1.2 c 0.6 0.5 1.3 0.9 2 1.2 l 0.3 2.9 c 0 0.3 0.3 0.5 0.5 0.5 h 4.5 c 0.3 0 0.5 -0.2 0.5 -0.5 l 0.3 -2.9 c 0.7 -0.3 1.4 -0.7 2 -1.2 l 2.6 1.2 c 0.3 0.1 0.6 0 0.7 -0.2 l 2.3 -3.9 c 0.1 -0.2 0.1 -0.6 -0.2 -0.7 L 45.2 38.1 z M 37 42.2 c -2.9 0 -5.2 -2.3 -5.2 -5.2 s 2.3 -5.2 5.2 -5.2 s 5.2 2.3 5.2 5.2 S 39.9 42.2 37 42.2" stroke-linecap="round" />
</g>
<g transform="matrix(4.17 0 0 4.17 254.17 254.17)" id="Layer_1"  >
<path style="stroke: none; stroke-width: 1; stroke-dasharray: none; stroke-linecap: butt; stroke-dashoffset: 0; stroke-linejoin: miter; stroke-miterlimit: 4; fill: rgb(69,90,100); fill-rule: nonzero; opacity: 1;"  transform=" translate(-37, -37)" d="M 37 31 c -3.3 0 -6 2.7 -6 6 s 2.7 6 6 6 s 6 -2.7 6 -6 S 40.3 31 37 31 M 37 40 c -1.7 0 -3 -1.3 -3 -3 s 1.3 -3 3 -3 s 3 1.3 3 3 S 38.7 40 37 40" stroke-linecap="round" />
</g>
</svg>