<svg width="190" height="139" viewBox="0 0 190 139" fill="none" xmlns="http://www.w3.org/2000/svg">
<path d="M0 4.38948C0 1.96524 2.68629 0 6 0H78C81.3137 0 84 1.96523 84 4.38947V57.0632C84 59.4874 81.3137 61.4526 78 61.4526H6C2.68629 61.4526 0 59.4874 0 57.0632V4.38948Z" fill="#636262"/>
<path d="M106 4.38948C106 1.96524 108.686 0 112 0H184C187.314 0 190 1.96523 190 4.38947V57.0632C190 59.4874 187.314 61.4526 184 61.4526H112C108.686 61.4526 106 59.4874 106 57.0632V4.38948Z" fill="#636262"/>
<path d="M0 81.9368C0 79.5126 2.68629 77.5474 6 77.5474H78C81.3137 77.5474 84 79.5126 84 81.9368V134.611C84 137.035 81.3137 139 78 139H6C2.68629 139 0 137.035 0 134.611V81.9368Z" fill="#636262"/>
<path d="M106 108.274C106 91.304 124.804 77.5474 148 77.5474C171.196 77.5474 190 91.304 190 108.274C190 125.243 171.196 139 148 139C124.804 139 106 125.243 106 108.274Z" fill="#636262"/>
</svg>
