<svg width="106" height="118" viewBox="0 0 106 118" fill="none" xmlns="http://www.w3.org/2000/svg">
<path d="M42.7003 104.024L29.3565 71.999C29.3565 71.999 0 77.3099 0 106.693H45.0702C44.3683 105.479 43.7172 104.235 43.1514 102.938L42.7003 104.024Z" fill="#3F51B5"/>
<path d="M64.6816 83.8751C65.5356 81.2997 67.1662 79.0793 69.2799 77.4593C62.4371 73.1946 56.0081 71.999 56.0081 71.999L43.1152 102.938C43.681 104.232 44.3295 105.479 45.0341 106.693H58.6768C58.6768 106.693 64.2492 85.1748 64.6816 83.8751Z" fill="#303F9F"/>
<path d="M42.6715 88.0282L29.3276 72.0156V56.0029H56.0154V72.0156L42.6715 88.0282Z" fill="#FF9800"/>
<path d="M72.0284 40.0158C72.0284 42.9674 69.6372 45.3533 66.6909 45.3533C63.7392 45.3533 61.3533 42.9674 61.3533 40.0158C61.3533 37.0668 63.7392 34.6782 66.6909 34.6782C69.6372 34.6782 72.0284 37.0668 72.0284 40.0158ZM23.9905 40.0158C23.9905 37.0668 21.5993 34.6782 18.653 34.6782C15.7013 34.6782 13.3154 37.0668 13.3154 40.0158C13.3154 42.9674 15.7013 45.3533 18.653 45.3533C21.5993 45.3533 23.9905 42.9674 23.9905 40.0158Z" fill="#FFA726"/>
<path d="M66.6902 24.0004C66.6902 3.62432 18.6523 10.7339 18.6523 24.0004V42.6818C18.6523 55.9483 29.4022 66.7007 42.6713 66.7007C55.9378 66.7007 66.6902 55.9483 66.6902 42.6818V24.0004Z" fill="#FFB74D"/>
<path d="M42.6711 0C26.4583 0 15.9834 13.1464 15.9834 29.3565V35.4546L21.3209 40.0316V26.6877L53.3462 16.0126L64.0213 26.6877V40.0316L69.3588 35.3826V29.3565C69.3588 18.6147 66.5887 7.96362 53.3462 5.33754L50.6774 0H42.6711Z" fill="#424242"/>
<path d="M50.6778 40.015C50.6778 38.5445 51.8734 37.3462 53.3466 37.3462C54.8197 37.3462 56.0154 38.5445 56.0154 40.015C56.0154 41.4855 54.8197 42.6837 53.3466 42.6837C51.8734 42.6837 50.6778 41.4855 50.6778 40.015ZM29.3276 40.015C29.3276 41.4855 30.5232 42.6837 31.9964 42.6837C33.4696 42.6837 34.6652 41.4855 34.6652 40.015C34.6652 38.5445 33.4696 37.3462 31.9964 37.3462C30.5232 37.3462 29.3276 38.5445 29.3276 40.015Z" fill="#784719"/>
<path d="M42.6715 104.028L29.3276 72.0029L42.6715 74.6717L56.0154 72.0029L42.6715 104.028Z" fill="white"/>
<path d="M45.3403 82.6748L46.9949 93.6968L45.6872 96.8193L42.6715 104.025L38.3481 93.6701L40.0028 82.6748L37.334 80.006L42.6715 74.6685L48.0091 80.006L45.3403 82.6748Z" fill="#D32F2F"/>
<path d="M99.2232 90.9508C99.4901 89.8833 99.4901 88.8158 99.4901 88.0152C99.4901 87.2145 99.4901 85.8802 99.2232 85.0795L105.361 80.5426C105.895 80.0089 106.162 79.2082 105.895 78.6745L99.757 68.2663C99.4901 67.7325 98.6894 67.4656 97.8888 67.7325L90.95 70.935C89.3487 69.6007 87.4806 68.5331 85.6125 67.7325L84.8118 59.9931C84.8118 59.1924 84.0112 58.6587 83.4774 58.6587H71.2011C70.6673 58.6587 69.8667 59.1924 69.8667 59.9931L69.0661 67.7325C67.1979 68.2663 65.3298 69.3338 63.7285 70.6682L56.7897 67.4656C55.9891 67.1988 55.1885 67.4656 54.9216 67.9994L48.7834 78.6745C48.5165 79.2082 48.7834 80.0089 49.3172 80.5426L55.4553 85.0795C55.1885 86.147 55.1885 87.2145 55.1885 88.0152C55.1885 88.8158 55.1885 90.1502 55.4553 90.9508L49.3172 95.4877C48.7834 96.0215 48.5165 96.8221 48.7834 97.3559L54.9216 107.764C55.1885 108.298 55.9891 108.565 56.7897 108.298L63.7285 105.095C65.3298 106.43 67.1979 107.497 69.0661 108.298L69.8667 116.037C69.8667 116.838 70.6673 117.372 71.2011 117.372H83.2106C84.0112 117.372 84.545 116.838 84.545 116.037L85.3456 108.298C87.2137 107.497 89.0819 106.43 90.6831 105.095L97.6219 108.298C98.4226 108.565 99.2232 108.298 99.4901 107.764L105.628 97.3559C105.895 96.8221 105.895 95.7546 105.094 95.4877L99.2232 90.9508ZM77.3393 101.893C69.5998 101.893 63.4617 95.7546 63.4617 88.0152C63.4617 80.2757 69.5998 74.1376 77.3393 74.1376C85.0787 74.1376 91.2169 80.2757 91.2169 88.0152C91.2169 95.7546 85.0787 101.893 77.3393 101.893Z" fill="#607D8B"/>
<path d="M77.3398 72.0029C68.5328 72.0029 61.3271 79.2086 61.3271 88.0156C61.3271 96.8225 68.5328 104.028 77.3398 104.028C86.1467 104.028 93.3524 96.8225 93.3524 88.0156C93.3524 79.2086 86.1467 72.0029 77.3398 72.0029ZM77.3398 96.0219C72.8029 96.0219 69.3335 92.5525 69.3335 88.0156C69.3335 83.4786 72.8029 80.0092 77.3398 80.0092C81.8767 80.0092 85.3461 83.4786 85.3461 88.0156C85.3461 92.5525 81.8767 96.0219 77.3398 96.0219Z" fill="#455A64"/>
</svg>
