<svg width="391" height="298" viewBox="0 0 391 298" fill="none" xmlns="http://www.w3.org/2000/svg">
<g filter="url(#filter0_d_151_1132)">
<path d="M80.0438 90.5743C78.0934 92.0352 77.5871 94.7439 78.8785 96.809L106.519 141.011C109.025 145.019 114.573 145.742 118.024 142.511L210.941 55.5415C213.028 53.5874 213.073 50.2923 211.038 48.2831C209.163 46.431 206.175 46.3343 204.184 48.0612L117.798 122.966C114.382 125.929 109.137 125.224 106.627 121.464L86.7668 91.7238C85.2715 89.4846 82.1998 88.9594 80.0438 90.5743Z" fill="#E74C3C"/>
<path d="M273.101 57.5076V170C273.101 170.719 273.125 171.473 273.149 172.234C273.197 173.783 273.247 175.365 273.101 176.756V181.25H111.627C106.097 181.25 101.627 185.727 101.627 191.25V197.5H126.66H279.359C284.036 197.5 287.964 194.298 289.065 189.969C289.265 188.337 289.362 186.302 289.373 183.75V47.5H283.114C277.584 47.5 273.101 51.9848 273.101 57.5076Z" fill="#636262"/>
<path fill-rule="evenodd" clip-rule="evenodd" d="M289.373 47.5H376.987C382.517 47.5 387 51.9792 387 57.5047V235.088C387 240.613 382.517 245.092 376.987 245.092H359.464C353.934 245.092 349.451 249.562 349.451 255.088V285.111C349.451 303.75 323.708 264.087 314.852 249.891C312.992 246.909 309.75 245.092 306.233 245.092H111.641C106.11 245.092 101.627 240.613 101.627 235.088V197.5H126.66C117.902 197.5 117.899 198.749 117.899 203.745V203.751C117.899 203.863 117.892 210.422 117.899 215C117.914 225.089 118.359 228.696 121.654 228.696H304.344C307.398 228.696 316.544 230.003 318.16 232.587C328.786 246.742 334.502 255.975 337.542 260.885C339.416 263.912 340.274 265.296 340.636 265.177C340.942 265.077 340.897 263.911 340.814 261.764C340.76 260.367 340.69 258.553 340.69 256.348V235.088C340.69 230.301 344.649 228.696 349.451 228.696H365.788C370.591 228.696 374.484 224.815 374.484 220.028V66.1726C374.484 61.3854 370.591 57.5047 365.788 57.5047L299.426 57.5047C293.88 57.5047 289.39 61.9713 289.406 67.5098C289.467 88.0515 289.572 136.992 289.373 183.75V47.5ZM289.065 189.969C289.265 188.337 289.362 186.302 289.373 183.75V187.5C289.373 188.352 289.266 189.179 289.065 189.969ZM289.065 189.969C287.964 194.298 284.036 197.5 279.359 197.5H280.611C280.872 197.454 281.126 197.41 281.374 197.367C286.058 196.558 288.306 196.169 289.065 189.969ZM273.101 176.756V170C273.101 170.719 273.125 171.473 273.149 172.234C273.197 173.783 273.247 175.365 273.101 176.756Z" fill="#636262"/>
<path d="M279.359 0H14.0131C8.48301 0 4 4.47715 4 10V187.5C4 193.023 8.483 197.5 14.0131 197.5H31.5359C37.066 197.5 41.549 201.968 41.549 207.49V237.5C41.549 256.13 67.292 216.485 76.1476 202.296C78.0081 199.315 81.2501 197.5 84.7673 197.5H101.627V191.25C101.627 185.727 106.097 181.25 111.627 181.25H273.101V176.756C272.841 179.236 271.961 181.111 269.346 181.111H86.6564C83.602 181.111 74.4556 182.417 72.8399 185C62.2144 199.149 56.4979 208.377 53.4579 213.285C51.5833 216.311 50.7264 217.694 50.3638 217.575C50.0584 217.475 50.1035 216.31 50.1864 214.164C50.2404 212.767 50.3105 210.955 50.3105 208.75V187.5C50.3105 182.715 46.3514 181.111 41.549 181.111H25.2119C20.4095 181.111 16.5163 177.232 16.5163 172.447V18.6638C16.5163 13.8789 20.4095 10 25.2119 10L269.346 10C273.331 10 273.288 11.0086 273.158 14.0853C273.132 14.7167 273.101 15.4352 273.101 16.25V57.5076C273.101 51.9848 277.584 47.5 283.114 47.5H289.373V10C289.373 4.47715 284.89 0 279.359 0Z" fill="#636262"/>
</g>
<defs>
<filter id="filter0_d_151_1132" x="0" y="0" width="391" height="298" filterUnits="userSpaceOnUse" color-interpolation-filters="sRGB">
<feFlood flood-opacity="0" result="BackgroundImageFix"/>
<feColorMatrix in="SourceAlpha" type="matrix" values="0 0 0 0 0 0 0 0 0 0 0 0 0 0 0 0 0 0 127 0" result="hardAlpha"/>
<feOffset dy="4"/>
<feGaussianBlur stdDeviation="2"/>
<feComposite in2="hardAlpha" operator="out"/>
<feColorMatrix type="matrix" values="0 0 0 0 0 0 0 0 0 0 0 0 0 0 0 0 0 0 0.25 0"/>
<feBlend mode="normal" in2="BackgroundImageFix" result="effect1_dropShadow_151_1132"/>
<feBlend mode="normal" in="SourceGraphic" in2="effect1_dropShadow_151_1132" result="shape"/>
</filter>
</defs>
</svg>
