<svg width="121" height="121" viewBox="0 0 121 121" fill="none" xmlns="http://www.w3.org/2000/svg">
<path d="M120.12 98.3998C120.12 86.4216 93.2312 76.7114 60.06 76.7114C26.8888 76.7114 0 86.4216 0 98.3998C0 110.378 26.8888 120.088 60.06 120.088C93.2312 120.088 120.12 110.378 120.12 98.3998Z" fill="#90CAF9"/>
<path d="M60.0598 0C39.7921 0 23.3564 16.2141 23.3564 36.208C23.3564 56.202 60.0598 103.437 60.0598 103.437C60.0598 103.437 96.7631 56.202 96.7631 36.208C96.7631 16.2141 80.3274 0 60.0598 0ZM60.0598 53.3867C50.8448 53.3867 43.3764 45.9183 43.3764 36.7033C43.3764 27.4884 50.8448 20.02 60.0598 20.02C69.2747 20.02 76.7431 27.4884 76.7431 36.7033C76.7431 45.9183 69.2747 53.3867 60.0598 53.3867Z" fill="#FF3D00"/>
</svg>
