<svg width="192" height="138" viewBox="0 0 192 138" fill="none" xmlns="http://www.w3.org/2000/svg">
<path d="M2.03176 17.3425L59.0918 59.0491L0.640049 115.651C-0.0379965 70.5772 -0.825999 45.9291 2.03176 17.3425Z" fill="#5A5959"/>
<path d="M6.90282 131.291L71.6172 67.9863C91.1803 83.0207 102.156 81.5041 121.719 67.9863L185.737 131.291C181.42 136.458 177 138.115 164.166 137.994H24.2992C16.9244 137.964 13.2605 135.842 6.90282 131.291Z" fill="#5A5959"/>
<path d="M134.244 59.0491L192 116.396V18.0872L134.244 59.0491Z" fill="#5A5959"/>
<path d="M8.99021 6.17115C8.99021 6.17115 61.8751 44.8986 96.6678 65.0072C115.456 55.3253 183.65 6.17115 183.65 6.17115C183.787 -1.60475 130.435 0.267756 96.6678 0.212901C62.0875 0.156725 13.2864 -1.62152 8.99021 6.17115Z" fill="#5A5959"/>
</svg>
