<svg width="80" height="120" viewBox="0 0 80 120" fill="none" xmlns="http://www.w3.org/2000/svg">
<path d="M77.8429 35.3207L62.9631 43.486C61.8448 44.0436 60.5541 44.1467 59.3615 43.7737C58.1689 43.4007 57.167 42.5805 56.5658 41.485C55.9646 40.3896 55.8107 39.104 56.1365 37.8976C56.4622 36.6912 57.2423 35.6578 58.3132 35.0138C58.5158 34.9007 58.7273 34.8043 58.9456 34.7255L74.8298 28.7643C75.6855 28.4451 76.6303 28.4613 77.4746 28.8098C78.3188 29.1583 79 29.8132 79.3814 30.6431C79.7628 31.473 79.8162 32.4164 79.5308 33.2841C79.2455 34.1517 78.6425 34.8793 77.8429 35.3207Z" fill="#FFC298"/>
<path d="M77.0628 49.2897L62.834 53.2793C61.624 53.5935 60.339 53.4202 59.2555 52.7966C58.172 52.1731 57.3765 51.1492 57.0402 49.9452C56.7038 48.7412 56.8535 47.4533 57.457 46.3585C58.0605 45.2637 59.0696 44.4495 60.2672 44.0911C60.5052 44.0267 60.7477 43.9801 60.9926 43.9516L75.6585 42.2032C76.5588 42.1081 77.4621 42.3531 78.1909 42.89C78.9197 43.427 79.4214 44.2171 79.5974 45.105C79.7733 45.993 79.6109 46.9147 79.1419 47.6891C78.6729 48.4634 77.9313 49.0343 77.0628 49.2897Z" fill="#FFC298"/>
<path d="M6.05078 91.866L9.50104 85.1887C9.50104 85.1887 13.8999 83.989 25.9339 90.6198C37.968 97.2506 39.0933 100.952 39.0933 100.952C39.0933 100.952 36.3033 106.532 34.8711 106.532C31.0768 106.802 12.4305 95.8743 6.05078 91.866Z" fill="#892E1D"/>
<path d="M75.4913 59.5825L66.1914 58.0387L69.6231 57.4156L63.913 60.4659C63.1224 60.8937 62.2012 61.0126 61.3279 60.7997C60.4547 60.5868 59.6916 60.0572 59.1866 59.3137C58.6816 58.5701 58.4707 57.6655 58.5948 56.7752C58.7189 55.885 59.1691 55.0725 59.8582 54.4954L64.7779 50.357C65.221 49.9819 65.7517 49.7248 66.3207 49.6094C66.8896 49.494 67.4785 49.524 68.0328 49.6967H68.1723L77.1746 52.5424C78.0378 52.8257 78.7629 53.4233 79.2057 54.2166C79.6484 55.01 79.7765 55.9408 79.5645 56.8242C79.3524 57.7076 78.8157 58.4789 78.0611 58.9848C77.3064 59.4906 76.3891 59.694 75.4913 59.5545V59.5825Z" fill="#FFC298"/>
<path d="M75.194 69.9714L60.8163 72.0174C59.6978 72.1765 58.5619 71.8847 57.6584 71.2063C56.755 70.5278 56.1581 69.5183 55.999 68.3997C55.8399 67.2812 56.1317 66.1453 56.8101 65.2418C57.4886 64.3384 58.4981 63.7415 59.6167 63.5824H59.998L74.5058 62.8291C75.3959 62.8389 76.2511 63.1774 76.9068 63.7796C77.5625 64.3817 77.9724 65.205 78.0578 66.0912C78.1432 66.9773 77.898 67.8637 77.3693 68.58C76.8407 69.2963 76.0659 69.7918 75.194 69.9714Z" fill="#FFC298"/>
<path d="M27.0644 41.46C27.0644 41.46 18.9456 48.1838 16.1556 53.9125C13.3656 59.6412 10.5757 97.8637 10.5757 97.8637L31.5283 110.214C32.9196 106.342 34.7944 102.661 37.1082 99.2587C40.6143 94.367 51.0581 91.0004 53.662 84.9927C56.266 78.985 50.3885 48.1559 50.5094 47.2538C50.6303 46.3517 27.0644 41.46 27.0644 41.46Z" fill="#FFC298"/>
<path d="M28.1083 47.2261C28.1083 47.2261 21.0404 55.8843 21.5054 61.7153C21.7724 65.1798 22.6476 68.5703 24.0907 71.7313L31.0563 58.451L28.1083 47.2261Z" fill="#E1927A"/>
<path d="M36.0927 74.4667C36.0927 74.4667 35.6277 86.4264 31.1173 90.9368C27.3174 94.9919 23.738 99.2481 20.3945 103.687L31.5544 110.281C32.9457 106.408 34.8205 102.728 37.1343 99.3253C40.6404 94.4336 51.0841 91.067 53.6881 85.0593C54.5623 83.0133 54.46 78.103 53.9485 72.4766L45.5786 73.2206L36.0927 74.4667Z" fill="#E1927A"/>
<path d="M77.0347 79.1792V6.37972C77.0347 2.8563 74.1784 0 70.655 0H32.265C28.7416 0 25.8853 2.8563 25.8853 6.37972V79.1792C25.8853 82.7026 28.7416 85.5589 32.265 85.5589H70.655C74.1784 85.5589 77.0347 82.7026 77.0347 79.1792Z" fill="#2652E4"/>
<path d="M71.4546 74.6723V9.01517C71.4546 7.11479 69.914 5.57422 68.0136 5.57422H34.9061C33.0057 5.57422 31.4651 7.11479 31.4651 9.01517V74.6723C31.4651 76.5727 33.0057 78.1133 34.9061 78.1133H68.0136C69.914 78.1133 71.4546 76.5727 71.4546 74.6723Z" fill="white"/>
<path d="M0 99.1754C0 99.1754 8.53729 87.0112 9.50448 85.2256C10.2671 87.5413 16.1353 95.753 22.6731 98.822C29.2109 101.891 36.8647 103.184 39.0967 100.989L32.6612 119.124C32.6612 119.124 11.0576 119.235 0 99.1754Z" fill="#AA4628"/>
<path d="M64.043 59.5552H38.8775C37.8657 59.5552 37.0454 60.3754 37.0454 61.3873V68.883C37.0454 69.8948 37.8657 70.715 38.8775 70.715H64.043C65.0548 70.715 65.875 69.8948 65.875 68.883V61.3873C65.875 60.3754 65.0548 59.5552 64.043 59.5552Z" fill="#BDE5EC"/>
<path d="M53.4017 57.007L50.0351 58.0486L46.6499 58.9786C44.3808 59.6017 42.1023 60.1783 39.7866 60.7177L42.4278 59.6296C39.9819 62.2707 38.5218 65.5908 37.4152 69.5339C36.3202 73.8478 35.4663 78.2193 34.8577 82.6282C34.4507 85.2155 33.0326 87.5352 30.9153 89.077C28.798 90.6187 26.155 91.2562 23.5676 90.8493C20.9803 90.4423 18.6606 89.0242 17.1188 86.9069C15.5771 84.7896 14.9396 82.1466 15.3465 79.5592C15.4967 78.6739 15.7592 77.8113 16.1277 76.9924C18.2103 72.2057 20.5767 67.5475 23.2142 63.0426C24.7086 60.5538 26.4436 58.2176 28.3943 56.0677C30.438 53.7901 32.811 51.8309 35.4343 50.2553L36.6154 49.5578C37.0583 49.2992 37.5626 49.1643 38.0755 49.1672C40.2702 49.0463 42.4836 48.8789 44.697 48.6743L48.0263 48.3953L51.2999 48.0047H51.4859C52.6512 47.8437 53.8342 48.1303 54.7966 48.8069C55.759 49.4834 56.4292 50.4996 56.6721 51.6506C56.9151 52.8016 56.7127 54.002 56.1058 55.0097C55.4989 56.0175 54.5327 56.7578 53.4017 57.0814V57.007Z" fill="#FFC298"/>
<path d="M31.9219 106.81C31.8245 108.517 31.0595 110.117 29.7922 111.264C28.6297 112.194 27.6812 111.822 27.6812 110.334C27.7853 108.633 28.5414 107.037 29.7922 105.88C30.9733 104.903 31.9219 105.322 31.9219 106.81Z" fill="#3B0B1B"/>
<path d="M65.7825 37.5773C65.7825 37.3541 65.4291 37.1309 65.1966 37.0751C62.4191 36.4179 59.6291 35.7979 56.8267 35.2151C56.6958 35.2111 56.5658 35.2385 56.4477 35.2951C56.3295 35.3518 56.2267 35.436 56.1479 35.5406C55.8782 35.9777 55.6457 36.4706 55.4132 36.8984C55.3109 37.103 55.2179 37.3076 55.1249 37.5122C54.8924 38.033 54.6785 37.9307 54.0647 37.94C51.2096 37.9307 43.9371 30.6675 44.0394 27.8775C44.0394 27.273 43.9464 27.0591 44.4672 26.8266C44.7555 26.6964 45.0531 26.5569 45.3321 26.4081C45.7041 26.2221 46.0761 26.0175 46.4388 25.7943C46.5405 25.7149 46.6227 25.6133 46.6791 25.4972C46.7355 25.3812 46.7647 25.2538 46.7643 25.1247C46.1443 22.3348 45.5243 19.5448 44.9043 16.7548C44.8728 16.6231 44.8098 16.5009 44.7207 16.3989C44.6316 16.2968 44.5191 16.2179 44.3928 16.1689C44.0033 16.0988 43.6073 16.0708 43.2117 16.0852H43.0257C40.2358 16.2433 37.4458 18.4381 37.4458 24.0273C37.4458 31.8671 48.4476 44.5429 57.9706 44.5429C63.3553 44.5429 65.5872 41.9296 65.8848 39.2605C65.9362 38.6975 65.9017 38.1299 65.7825 37.5773Z" fill="#E44450"/>
<path d="M52.0356 22.5615C53.8806 22.5615 55.6499 23.2944 56.9545 24.599C58.2591 25.9035 58.992 27.6729 58.992 29.5178" stroke="#ECC6C3" stroke-width="3.12" stroke-miterlimit="10" stroke-linecap="round"/>
<path d="M52.0352 17.1216C53.6627 17.1204 55.2745 17.4399 56.7785 18.0619C58.2825 18.6838 59.6491 19.5961 60.8004 20.7465C61.9517 21.8969 62.865 23.2629 63.4881 24.7664C64.1112 26.2699 64.4319 27.8815 64.4319 29.509" stroke="#ECC6C3" stroke-width="3.12" stroke-miterlimit="10" stroke-linecap="round"/>
<path d="M52.0249 26.8042V29.5198H54.7126C54.715 28.8036 54.4336 28.1157 53.9298 27.6067C53.426 27.0977 52.741 26.8091 52.0249 26.8042Z" fill="#ECC6C3"/>
</svg>
