<?xml version="1.0" encoding="UTF-8" standalone="no" ?>
<!DOCTYPE svg PUBLIC "-//W3C//DTD SVG 1.1//EN" "http://www.w3.org/Graphics/SVG/1.1/DTD/svg11.dtd">
<svg xmlns="http://www.w3.org/2000/svg" xmlns:xlink="http://www.w3.org/1999/xlink" version="1.1" width="400" height="400" viewBox="0 0 400 400" xml:space="preserve">
<desc>Created with Fabric.js 3.6.2</desc>
<defs>
</defs>
<g transform="matrix(12.5 0 0 12.5 200 200)"  >
<path style="stroke: none; stroke-width: 1; stroke-dasharray: none; stroke-linecap: butt; stroke-dashoffset: 0; stroke-linejoin: miter; stroke-miterlimit: 4; fill: rgb(74,85,104); fill-rule: evenodd; opacity: 1;"  transform=" translate(-10, -10)" d="M 18 10 C 18 14.4183 14.4183 18 10 18 C 5.58172 18 2 14.4183 2 10 C 2 5.58172 5.58172 2 10 2 C 14.4183 2 18 5.58172 18 10 Z M 10 7 C 9.63113 7 9.3076 7.19922 9.13318 7.50073 C 8.85664 7.97879 8.24491 8.14215 7.76685 7.86561 C 7.28879 7.58906 7.12543 6.97733 7.40197 6.49927 C 7.91918 5.60518 8.88833 5 10 5 C 11.6569 5 13 6.34315 13 8 C 13 9.30622 12.1652 10.4175 11 10.8293 V 11 C 11 11.5523 10.5523 12 10 12 C 9.44773 12 9.00001 11.5523 9.00001 11 V 10 C 9.00001 9.44772 9.44773 9 10 9 C 10.5523 9 11 8.55228 11 8 C 11 7.44772 10.5523 7 10 7 Z M 10 15 C 10.5523 15 11 14.5523 11 14 C 11 13.4477 10.5523 13 10 13 C 9.44772 13 9 13.4477 9 14 C 9 14.5523 9.44772 15 10 15 Z" stroke-linecap="round" />
</g>
</svg>