<svg width="195" height="139" viewBox="0 0 195 139" fill="none" xmlns="http://www.w3.org/2000/svg">
<path d="M171.927 0C169.461 0 167.462 1.76963 167.462 3.95261V135.047C167.462 137.23 169.461 139 171.927 139H190.534C193.001 139 195 137.23 195 135.047V3.95261C195 1.76963 193.001 0 190.534 0H171.927Z" fill="#5A5959"/>
<path d="M60.2863 32.9384C57.8199 32.9384 55.8206 34.708 55.8206 36.891V135.047C55.8206 137.23 57.8199 139 60.2863 139H78.8931C81.3594 139 83.3588 137.23 83.3588 135.047V36.891C83.3588 34.708 81.3594 32.9384 78.8931 32.9384H60.2863Z" fill="#5A5959"/>
<path d="M4.46565 89.5924C1.99933 89.5924 0 91.3621 0 93.545V135.047C0 137.23 1.99933 139 4.46565 139H23.0725C25.5388 139 27.5382 137.23 27.5382 135.047V93.545C27.5382 91.3621 25.5388 89.5924 23.0725 89.5924H4.46565Z" fill="#5A5959"/>
<path d="M111.641 69.1706C111.641 66.9876 113.641 65.218 116.107 65.218H134.714C137.18 65.218 139.179 66.9876 139.179 69.1706V135.047C139.179 137.23 137.18 139 134.714 139H116.107C113.641 139 111.641 137.23 111.641 135.047V69.1706Z" fill="#5A5959"/>
</svg>
