<svg width="193" height="139" viewBox="0 0 193 139" fill="none" xmlns="http://www.w3.org/2000/svg">
<path d="M0 11.73C0 5.25169 4.50037 0 10.0521 0H182.948C188.5 0 193 5.25169 193 11.73V31.0844C193 37.5627 188.5 42.8143 182.948 42.8143H10.0521C4.50037 42.8143 0 37.5627 0 31.0844V11.73Z" fill="#5A5959"/>
<path d="M0 59.8228C0 53.3445 4.50037 48.0928 10.0521 48.0928H105.044C110.596 48.0928 115.096 53.3445 115.096 59.8228V79.1772C115.096 85.6555 110.596 90.9072 105.044 90.9072H10.0521C4.50037 90.9072 0 85.6555 0 79.1772V59.8228Z" fill="#5A5959"/>
<path d="M10.0521 96.1857C4.50037 96.1857 0 101.437 0 107.916V127.27C0 133.748 4.50037 139 10.0521 139H60.8151C66.3668 139 70.8672 133.748 70.8672 127.27V107.916C70.8672 101.437 66.3668 96.1857 60.8151 96.1857H10.0521Z" fill="#5A5959"/>
</svg>
