<svg width="152" height="139" viewBox="0 0 152 139" fill="none" xmlns="http://www.w3.org/2000/svg">
<path fill-rule="evenodd" clip-rule="evenodd" d="M88.9689 91.3967C88.8493 92.1582 88.7378 92.8688 88.7378 93.5793L100.646 101.745C101.681 102.255 101.681 103.786 101.164 104.807L90.8088 122.669C90.2911 123.69 88.7378 124.2 87.7023 123.69L74.7586 118.586C72.1699 120.628 69.0634 122.159 65.957 123.69L63.886 136.959C63.886 137.979 62.3327 139 61.2972 139H40.5874C39.0341 139 37.9986 137.979 37.9986 136.959L35.9276 123.69C32.8212 122.159 29.7147 120.628 27.1259 118.586L14.1823 123.69C12.629 124.2 11.5935 123.69 11.0758 123.179L0.720861 105.317C0.203114 104.297 0.203114 103.276 1.23861 102.255L12.1113 93.5793C11.5935 92.0483 11.5935 90.5173 11.5935 88.4759C11.5935 87.3819 11.7422 86.4345 11.8802 85.5551C11.9998 84.7936 12.1113 84.083 12.1113 83.3725L1.23861 75.2069C0.203114 74.1863 -0.314632 72.6552 0.203115 72.1449L10.558 54.2828C11.5935 53.2621 12.629 52.7518 14.1823 53.2621L26.6082 58.3656C27.2424 57.9488 27.8551 57.532 28.455 57.1239C30.7933 55.5332 32.9377 54.0744 35.4099 53.2621L37.4809 39.4828C37.4809 38.4621 39.0341 37.4414 40.0696 37.4414H60.7795C61.815 37.4414 63.3682 38.4621 62.8505 39.9932L64.9215 53.2621C68.0279 54.7932 71.1344 56.3242 73.7232 58.3656L86.6668 53.2621C88.2201 52.7518 89.2556 53.2621 89.7733 53.7725L100.128 71.6345C100.646 72.6552 100.646 73.6759 99.6105 74.6966L88.7378 83.3725C89.2556 84.9035 89.2556 86.4345 89.2556 88.4759C89.2556 89.5699 89.1069 90.5173 88.9689 91.3967ZM32.3034 88.4759C32.3034 98.1724 40.5874 106.338 50.4245 106.338C60.2617 106.338 68.5457 98.1724 68.5457 88.4759C68.5457 78.7794 60.2617 70.6138 50.4245 70.6138C40.5874 70.6138 32.3034 78.7794 32.3034 88.4759Z" fill="#5A5959"/>
<path fill-rule="evenodd" clip-rule="evenodd" d="M140.756 44.5369C140.881 44.0787 141.077 43.6394 141.288 43.1686C141.531 42.625 141.793 42.0393 141.985 41.3338C142.343 40.0173 142.611 39.0299 142.546 37.9543L151.079 34.211C151.926 33.7291 152.105 33.0708 151.95 32.3244L148.403 19.0408C148.159 18.6235 147.58 18.118 146.489 18.1825L137.247 19.2691C135.935 17.5116 134.2 15.9951 132.465 14.4785L133.455 5.56823C134.058 4.66902 133.235 3.74618 132.567 3.56979L119.211 0.0421376C118.543 -0.134245 117.362 0.25945 117.183 0.91772L113.432 9.45159C111.695 9.55435 110.057 10.1299 108.27 10.7575C107.811 10.9185 107.343 11.0829 106.861 11.2437L99.7417 5.83574C98.8295 5.24204 98.0722 5.39479 97.2254 5.87668L87.4158 15.6326C86.9924 15.8735 87.0579 16.9491 87.5468 17.7838L93.1274 24.9019C93.0028 25.3602 92.8063 25.7995 92.5957 26.2703C92.3525 26.8139 92.0905 27.3997 91.8987 28.1052C91.5408 29.4217 91.2724 30.4091 91.3379 31.4846L82.8049 35.2279C81.9581 35.7098 81.7792 36.3681 81.9341 37.1145L85.4808 50.3981C85.7253 50.8154 86.3036 51.3209 87.3948 51.2563L96.6372 50.1698C97.9489 51.9273 99.6839 53.4438 101.419 54.9604L100.428 63.8707C100.249 64.5289 100.738 65.3636 101.74 65.6281L115.096 69.1558C115.764 69.3322 116.945 68.9385 117.124 68.2802L120.786 60.0755C123.058 59.6172 125.329 59.159 127.357 58.2834L134.81 63.7795C135.388 64.285 136.479 64.2205 136.992 63.6504L146.802 53.8945C147.315 53.3244 147.583 52.337 147.005 51.8315L140.756 44.5369ZM105.255 31.6327C103.555 37.8863 107.466 44.5635 113.81 46.2392C120.155 47.9148 126.929 44.0597 128.629 37.8061C130.329 31.5526 126.418 24.8754 120.073 23.1997C113.729 21.5241 106.955 25.3792 105.255 31.6327Z" fill="#8A8A8A"/>
</svg>
