<?xml version="1.0" encoding="UTF-8" standalone="no" ?>
<!DOCTYPE svg PUBLIC "-//W3C//DTD SVG 1.1//EN" "http://www.w3.org/Graphics/SVG/1.1/DTD/svg11.dtd">
<svg xmlns="http://www.w3.org/2000/svg" xmlns:xlink="http://www.w3.org/1999/xlink" version="1.1" width="400" height="400" viewBox="0 0 400 400" xml:space="preserve">
<desc>Created with Fabric.js 3.6.2</desc>
<defs>
</defs>
<g transform="matrix(3.13 0 0 3.13 200 200)" id="Layer_2"  >
<circle style="stroke: none; stroke-width: 1; stroke-dasharray: none; stroke-linecap: butt; stroke-dashoffset: 0; stroke-linejoin: miter; stroke-miterlimit: 4; fill: rgb(249,191,68); fill-rule: nonzero; opacity: 1;"  cx="0" cy="0" r="27.758" />
</g>
<g transform="matrix(3.13 0 0 3.13 251.39 208.33)" id="Layer_1"  >
<path style="stroke: none; stroke-width: 1; stroke-dasharray: none; stroke-linecap: butt; stroke-dashoffset: 0; stroke-linejoin: miter; stroke-miterlimit: 4; fill: rgb(88,179,222); fill-rule: nonzero; opacity: 1;"  transform=" translate(-48.45, -34.66)" d="M 51.58 32.24 l -2.43 -2.43 a 1 1 0 0 0 -1.41 0 l -2.43 2.43 a 4.435 4.435 0 0 0 3.14 7.57 a 4.434 4.434 0 0 0 3.13 -7.57 Z" stroke-linecap="round" />
</g>
<g transform="matrix(3.13 0 0 3.13 200.41 216.53)" id="Layer_1"  >
<path style="stroke: none; stroke-width: 1; stroke-dasharray: none; stroke-linecap: butt; stroke-dashoffset: 0; stroke-linejoin: miter; stroke-miterlimit: 4; fill: rgb(56,42,18); fill-rule: nonzero; opacity: 1;"  transform=" translate(-32.13, -37.29)" d="M 42.61 41.539 a 1 1 0 0 1 -0.9 -0.56 a 10.667 10.667 0 0 0 -19.145 0 a 1 1 0 1 1 -1.795 -0.881 a 12.666 12.666 0 0 1 22.734 0 a 1 1 0 0 1 -0.9 1.44 Z" stroke-linecap="round" />
</g>
<g transform="matrix(3.13 0 0 3.13 164.42 190.3)" id="Layer_1"  >
<path style="stroke: none; stroke-width: 1; stroke-dasharray: none; stroke-linecap: butt; stroke-dashoffset: 0; stroke-linejoin: miter; stroke-miterlimit: 4; fill: rgb(56,42,18); fill-rule: nonzero; opacity: 1;"  transform=" translate(-20.62, -28.9)" d="M 20.615 31.515 A 6.787 6.787 0 0 1 14.482 27.7 a 1 1 0 0 1 1.795 -0.881 a 4.835 4.835 0 0 0 8.676 0 a 1 1 0 0 1 1.795 0.881 A 6.787 6.787 0 0 1 20.615 31.515 Z" stroke-linecap="round" />
</g>
<g transform="matrix(3.13 0 0 3.13 233.16 190.3)" id="Layer_1"  >
<path style="stroke: none; stroke-width: 1; stroke-dasharray: none; stroke-linecap: butt; stroke-dashoffset: 0; stroke-linejoin: miter; stroke-miterlimit: 4; fill: rgb(56,42,18); fill-rule: nonzero; opacity: 1;"  transform=" translate(-42.61, -28.9)" d="M 42.609 31.515 A 6.787 6.787 0 0 1 36.478 27.7 a 1 1 0 0 1 1.795 -0.881 a 4.834 4.834 0 0 0 8.675 0 a 1 1 0 0 1 1.795 0.881 A 6.787 6.787 0 0 1 42.609 31.515 Z" stroke-linecap="round" />
</g>
</svg>