<svg width="135" height="135" viewBox="0 0 135 135" fill="none" xmlns="http://www.w3.org/2000/svg">
<path d="M67.5 135C104.769 135 135 104.769 135 67.5C135 30.2306 104.769 0 67.5 0C30.2306 0 0 30.2306 0 67.5C0 104.769 30.2306 135 67.5 135Z" fill="#2CB5E5"/>
<path d="M28.074 66.8901C28.074 66.8901 61.8036 53.0564 73.5215 48.174C77.9971 46.221 93.2141 39.9958 93.2141 39.9958C93.2141 39.9958 100.253 37.2698 99.6427 43.9018C99.4392 46.6278 97.8931 56.1893 96.347 66.5239C93.9872 81.1712 91.4646 97.1613 91.4646 97.1613C91.4646 97.1613 91.0577 101.637 87.762 102.41C84.4664 103.183 78.9736 99.6839 77.9971 98.9108C77.2241 98.3412 63.3497 89.5528 58.3045 85.24C56.9212 84.06 55.3751 81.7409 58.508 79.0148C65.5468 72.5863 73.9284 64.5709 78.9736 59.5257C81.3335 57.1658 83.6526 51.7137 73.8877 58.3457C60.0541 67.9072 46.3832 76.8584 46.3832 76.8584C46.3832 76.8584 43.2503 78.8114 37.3913 77.0618C31.5324 75.3123 24.6969 72.9524 24.6969 72.9524C24.6969 72.9524 20.0179 70.023 27.9926 66.8901H28.074Z" fill="white"/>
</svg>
