<svg width="135" height="135" viewBox="0 0 135 135" fill="none" xmlns="http://www.w3.org/2000/svg">
<path d="M67.5 0C30.2306 0 0 30.2306 0 67.5C0 104.769 30.2306 135 67.5 135C104.769 135 135 104.769 135 67.5C135 30.2306 104.769 0 67.5 0ZM68.8834 105.054C62.2514 105.054 55.7007 103.386 49.8418 100.212L28.0335 106.071L33.8517 84.3445C30.5561 78.4042 28.8065 71.7315 28.8065 64.9774C28.8065 42.8843 46.7902 24.9005 68.8834 24.9005C90.9765 24.9005 108.96 42.8843 108.96 64.9774C108.96 87.0705 90.9765 105.054 68.8834 105.054ZM68.8834 32.4684C50.981 32.4684 36.3743 47.0344 36.3743 64.9774C36.3743 70.877 38.0018 76.736 41.1347 81.8219L41.9891 83.2052L38.7342 95.33L50.9403 92.075L52.3237 92.8888C57.3689 95.8996 63.1058 97.4864 68.9241 97.4864C86.8671 97.4864 101.433 82.9204 101.433 64.9774C101.433 47.0344 86.8671 32.4684 68.9241 32.4684H68.8834ZM87.9656 77.2649C86.745 80.1944 83.7342 82.1067 80.7233 82.6763C77.7939 83.2459 75.3933 82.3101 72.708 81.415C70.3074 80.6013 67.9882 79.462 65.8318 78.16C61.519 75.5154 57.7758 71.9756 54.8056 67.9069C53.9105 66.6456 53.0561 65.3843 52.2423 64.0416C51.2251 62.292 50.2893 60.4204 49.8011 58.4268C49.5976 57.613 49.5163 56.7586 49.4756 55.9042C49.4756 52.8933 50.5741 49.8418 52.9747 47.8888C54.358 46.7495 56.3924 46.2613 57.9385 47.1564C59.6067 48.0922 60.5018 50.4928 61.2749 52.2016C61.8852 53.5036 62.5769 55.2532 62.3327 56.7179C62.0886 58.1826 60.9087 59.4439 59.9729 60.5425C59.3626 61.2749 59.2405 61.9259 59.7694 62.6989C62.8617 67.8662 67.1338 71.5687 72.7486 73.8065C73.5217 74.132 74.0913 74.0099 74.5796 73.3996C75.5561 72.2197 76.4919 69.8599 77.9973 69.2495C79.9503 68.4358 82.1067 69.575 83.7342 70.5515C85.2803 71.4873 87.8436 72.5859 88.2505 74.4982C88.4539 75.434 88.2505 76.3698 87.925 77.2649H87.9656Z" fill="url(#paint0_linear_181_1214)"/>
<path fill-rule="evenodd" clip-rule="evenodd" d="M68.8834 105.054C62.2514 105.054 55.7007 103.386 49.8418 100.212L28.0335 106.071L33.8517 84.3445C30.5561 78.4042 28.8065 71.7315 28.8065 64.9774C28.8065 42.8843 46.7902 24.9005 68.8834 24.9005C90.9765 24.9005 108.96 42.8843 108.96 64.9774C108.96 87.0705 90.9765 105.054 68.8834 105.054ZM36.3743 64.9774C36.3743 47.0344 50.981 32.4684 68.8834 32.4684H68.9241C86.8671 32.4684 101.433 47.0344 101.433 64.9774C101.433 82.9204 86.8671 97.4864 68.9241 97.4864C63.1058 97.4864 57.3689 95.8996 52.3237 92.8888L50.9403 92.075L38.7342 95.33L41.9891 83.2052L41.1347 81.8219C38.0018 76.736 36.3743 70.877 36.3743 64.9774Z" fill="url(#paint1_linear_181_1214)"/>
<path d="M87.9656 77.2649C86.745 80.1944 83.7342 82.1067 80.7233 82.6763C77.7939 83.2459 75.3933 82.3101 72.708 81.415C70.3074 80.6013 67.9882 79.462 65.8318 78.16C61.519 75.5154 57.7758 71.9756 54.8056 67.9069C53.9105 66.6456 53.0561 65.3843 52.2423 64.0416C51.2251 62.292 50.2893 60.4204 49.8011 58.4268C49.5976 57.613 49.5163 56.7586 49.4756 55.9042C49.4756 52.8933 50.5741 49.8418 52.9747 47.8888C54.358 46.7495 56.3924 46.2613 57.9385 47.1564C59.6067 48.0922 60.5018 50.4928 61.2749 52.2016C61.8852 53.5036 62.5769 55.2532 62.3327 56.7179C62.0886 58.1826 60.9087 59.4439 59.9729 60.5425C59.3626 61.2749 59.2405 61.9259 59.7694 62.6989C62.8617 67.8662 67.1338 71.5687 72.7486 73.8065C73.5217 74.132 74.0913 74.0099 74.5796 73.3996C75.5561 72.2197 76.4919 69.8599 77.9973 69.2495C79.9503 68.4358 82.1067 69.575 83.7342 70.5515C85.2803 71.4873 87.8436 72.5859 88.2505 74.4982C88.4539 75.434 88.2505 76.3698 87.925 77.2649H87.9656Z" fill="url(#paint2_linear_181_1214)"/>
<defs>
<linearGradient id="paint0_linear_181_1214" x1="115.226" y1="115.226" x2="19.774" y2="19.774" gradientUnits="userSpaceOnUse">
<stop stop-color="#00FB73"/>
<stop offset="1" stop-color="#00B25B"/>
</linearGradient>
<linearGradient id="paint1_linear_181_1214" x1="115.226" y1="115.226" x2="19.774" y2="19.774" gradientUnits="userSpaceOnUse">
<stop stop-color="white"/>
<stop offset="1" stop-color="white"/>
</linearGradient>
<linearGradient id="paint2_linear_181_1214" x1="115.226" y1="115.226" x2="19.774" y2="19.774" gradientUnits="userSpaceOnUse">
<stop stop-color="white"/>
<stop offset="1" stop-color="white"/>
</linearGradient>
</defs>
</svg>
