<?xml version="1.0" encoding="UTF-8" standalone="no" ?>
<!DOCTYPE svg PUBLIC "-//W3C//DTD SVG 1.1//EN" "http://www.w3.org/Graphics/SVG/1.1/DTD/svg11.dtd">
<svg xmlns="http://www.w3.org/2000/svg" xmlns:xlink="http://www.w3.org/1999/xlink" version="1.1" width="400" height="400" viewBox="0 0 400 400" xml:space="preserve">
<desc>Created with Fabric.js 3.6.2</desc>
<defs>
</defs>
<g transform="matrix(1 0 0 1 199.15 208.99)" id="Layer_1"  >
<path style="stroke: none; stroke-width: 1; stroke-dasharray: none; stroke-linecap: butt; stroke-dashoffset: 0; stroke-linejoin: miter; stroke-miterlimit: 4; fill: rgb(94,136,158); fill-rule: nonzero; opacity: 1;"  transform=" translate(-99.15, -108.99)" d="M 167.353 105.032 l -19.623 -39.346 c -0.222 -0.435 -0.516 -0.84 -0.89 -1.179 c -0.375 -0.338 -0.795 -0.586 -1.233 -0.743 l -23.01 -8.27 c -1.603 -0.576 -3.32 -0.885 -5.107 -0.869 c -1.785 0.019 -3.494 0.362 -5.089 0.969 l -17.459 6.66 c -1.229 0.47 -2.449 1.01 -3.652 1.625 c -0.402 0.208 -0.797 0.433 -1.19 0.654 c -1.318 -0.714 -2.694 -1.343 -4.13 -1.878 c -4.58 -1.712 -9.27 -2.29 -13.809 -1.902 l -11.746 1.008 c -0.511 0.044 -1.027 0.202 -1.509 0.485 c -0.482 0.284 -0.88 0.667 -1.193 1.11 l -26.448 37.651 c -0.545 0.773 -0.836 1.757 -0.747 2.798 c 0.087 1.041 0.535 1.954 1.197 2.61 l 11.504 11.401 c -0.631 1.155 -1.031 2.452 -1.123 3.84 c -0.166 2.494 0.653 4.902 2.299 6.781 c 1.648 1.878 3.927 3.003 6.423 3.166 c 0.133 0.009 0.268 0.009 0.403 0.014 c -1.023 3.307 -0.186 7.063 2.479 9.585 c 1.595 1.51 3.64 2.39 5.813 2.531 c -1.4 3.47 -0.643 7.608 2.218 10.315 c 1.745 1.654 4.027 2.563 6.432 2.563 c 2.504 0 4.84 -0.978 6.604 -2.744 c 0.656 4.238 4.177 7.617 8.63 7.908 c 0.205 0.014 0.415 0.023 0.62 0.023 c 1.138 0 2.228 -0.215 3.242 -0.593 c 1.656 1.104 3.63 1.712 5.731 1.627 c 2.582 -0.108 4.898 -1.247 6.63 -3.029 l -6.327 -6.313 c 0.015 -0.146 0.042 -0.286 0.048 -0.437 c 0.082 -1.24 -0.088 -2.44 -0.457 -3.555 l 12.949 12.916 c 1.634 0.665 3.412 0.998 5.264 0.923 c 3.706 -0.151 7.007 -1.901 9.345 -4.609 l 1.296 -1.503 c 0.12 -0.142 0.212 -0.302 0.292 -0.474 l -19.937 -19.882 c -0.514 -0.509 -0.555 -1.356 -0.099 -1.889 c 0.457 -0.53 1.249 -0.548 1.759 -0.039 l 23.711 23.645 c 1.292 0.453 2.675 0.674 4.112 0.615 c 3.258 -0.133 6.165 -1.672 8.22 -4.057 l 3.131 -3.624 c 0.718 -0.836 1.146 -1.964 1.106 -3.19 l -20.807 -20.744 c -0.508 -0.51 -0.554 -1.359 -0.098 -1.888 c 0.46 -0.531 1.25 -0.549 1.759 -0.04 l 20.905 20.845 c 0.858 0.229 1.759 0.341 2.685 0.304 c 2.671 -0.108 5.047 -1.368 6.729 -3.321 l 0.841 -0.974 c 1.683 -1.949 2.675 -4.589 2.574 -7.46 c -0.102 -2.87 -1.272 -5.42 -3.086 -7.23 l -5.581 -5.564 l 1.41 1.404 l 15.09 -13.626 c 0.641 -0.576 1.106 -1.383 1.276 -2.331 C 167.899 106.758 167.746 105.823 167.353 105.032 z M 51.08 127.569 c -1.415 -0.092 -2.709 -0.73 -3.646 -1.798 c -0.936 -1.065 -1.398 -2.432 -1.304 -3.85 c 0.179 -2.783 2.509 -4.962 5.291 -4.962 c 0.118 0 0.238 0.003 0.356 0.01 c 1.415 0.094 2.709 0.731 3.646 1.799 c 0.936 1.067 1.398 2.433 1.307 3.851 C 56.536 125.52 54.015 127.765 51.08 127.569 z M 60.127 139.719 c -1.363 0 -2.659 -0.514 -3.649 -1.451 c -2.101 -1.986 -2.215 -5.333 -0.265 -7.449 c 0.101 -0.105 2.173 -2.297 3.167 -3.343 l 0.522 -0.555 c 1.014 -1.07 2.384 -1.66 3.858 -1.66 c 1.364 0 2.661 0.517 3.649 1.456 c 1.031 0.974 1.622 2.291 1.66 3.711 c 0.039 1.415 -0.477 2.764 -1.451 3.792 l -1.478 1.563 c -0.316 0.332 -0.655 0.691 -1.002 1.057 c -0.055 0.062 -0.116 0.124 -0.169 0.182 c -0.258 0.271 -0.486 0.511 -0.663 0.696 c -0.101 0.109 -0.202 0.218 -0.306 0.324 c -0.026 0.027 -0.046 0.05 -0.048 0.053 C 62.946 139.143 61.585 139.719 60.127 139.719 z M 71.984 150.945 c -1.009 1.048 -2.366 1.624 -3.823 1.624 c -1.364 0 -2.663 -0.517 -3.65 -1.455 c -2.1 -1.986 -2.215 -5.332 -0.271 -7.438 c 0.046 -0.05 1.263 -1.338 2.642 -2.793 c 0 -0.001 0 -0.001 0 -0.001 l 1.024 -1.081 c 1.793 -1.898 2.381 -2.515 2.579 -2.73 c 0.023 -0.021 0.05 -0.046 0.069 -0.068 l 0 0 L 70.558 137 c 0.173 -0.187 0.274 -0.291 0.277 -0.294 c 1.012 -1.07 2.384 -1.661 3.859 -1.661 c 1.364 0 2.658 0.516 3.649 1.454 c 1.031 0.976 1.619 2.294 1.658 3.71 c 0.039 1.421 -0.477 2.769 -1.455 3.802 C 78.451 144.111 72.189 150.727 71.984 150.945 z M 83.66 157.745 c -2.922 -0.194 -5.144 -2.728 -4.951 -5.648 c 0.183 -2.785 2.504 -4.964 5.29 -4.964 c 0.118 0 0.238 0.004 0.356 0.011 c 2.921 0.192 5.143 2.726 4.953 5.647 C 89.116 155.69 86.599 157.938 83.66 157.745 z M 148.585 120.894 l -41.334 -41.21 l 0 0 l 0.466 -1.177 c 0.241 -0.614 0.21 -1.339 -0.143 -1.949 c -0.354 -0.608 -0.946 -0.962 -1.566 -0.995 l -3.072 -0.184 l 0 0 L 99.58 75.18 l -0.255 3.978 c -0.003 0.083 -0.668 9.129 -5.281 17.302 c -4.729 8.387 -10.995 11.279 -11.95 11.465 c -1.067 0.207 -2.186 0.404 -3.116 0.404 c -0.639 0 -1.131 -0.09 -1.552 -0.283 l -1.569 -0.727 c -0.658 -0.305 -1.16 -0.865 -1.425 -1.579 c -0.258 -0.689 -0.255 -1.442 0 -2.129 l 15.721 -34.502 l 2.673 -1.761 l 1.077 -0.41 h -0.002 l 19.758 -7.536 c 1.242 -0.473 2.543 -0.721 3.864 -0.733 l 0.11 -0.001 c 1.282 0 2.552 0.222 3.768 0.66 l 23.011 8.27 l 19.625 39.345 L 148.585 120.894 z" stroke-linecap="round" />
</g>
<g transform="matrix(1 0 0 1 275 174.07)" id="Layer_1"  >
<path style="stroke: none; stroke-width: 1; stroke-dasharray: none; stroke-linecap: butt; stroke-dashoffset: 0; stroke-linejoin: miter; stroke-miterlimit: 4; fill: rgb(94,136,158); fill-rule: nonzero; opacity: 1;"  transform=" translate(-175, -74.07)" d="M 170.949 40.557 l -15.534 7.745 c -2.234 1.117 -4.046 3.085 -4.902 5.641 c -0.855 2.557 -0.59 5.218 0.521 7.457 l 20.339 40.775 c 1.115 2.233 3.082 4.048 5.643 4.9 c 2.554 0.856 5.215 0.595 7.453 -0.521 L 200 98.805 L 170.949 40.557 z M 184.429 98.829 c -2.063 0 -3.741 -1.673 -3.741 -3.739 c 0 -2.068 1.678 -3.745 3.741 -3.745 c 2.067 0 3.745 1.677 3.745 3.745 C 188.174 97.156 186.496 98.829 184.429 98.829 z" stroke-linecap="round" />
</g>
<g transform="matrix(1 0 0 1 127.89 169.16)" id="Layer_1"  >
<path style="stroke: none; stroke-width: 1; stroke-dasharray: none; stroke-linecap: butt; stroke-dashoffset: 0; stroke-linejoin: miter; stroke-miterlimit: 4; fill: rgb(94,136,158); fill-rule: nonzero; opacity: 1;"  transform=" translate(-27.89, -69.16)" d="M 0 89.914 l 14.202 9.977 c 2.044 1.438 4.637 2.093 7.293 1.628 c 2.658 -0.463 4.872 -1.961 6.307 -4.004 l 26.193 -37.286 c 1.439 -2.043 2.094 -4.639 1.631 -7.293 c -0.467 -2.657 -1.959 -4.873 -4.005 -6.311 L 37.417 36.65 L 0 89.914 z M 12.25 88 c 0.308 -2.044 2.215 -3.451 4.256 -3.144 c 2.046 0.309 3.451 2.217 3.145 4.26 c -0.309 2.046 -2.214 3.453 -4.259 3.142 C 13.347 91.952 11.941 90.046 12.25 88 z" stroke-linecap="round" />
</g>
</svg>