<svg width="1579" height="2039" viewBox="0 0 1579 2039" fill="none" xmlns="http://www.w3.org/2000/svg">
<path fill-rule="evenodd" clip-rule="evenodd" d="M588.201 809.557L526.803 845.006L547.269 880.454L0 1828.35L293.044 1740.34L363.347 2038.13L789.5 1300.01L1215.65 2038.13L1285.96 1740.34L1579 1828.35L1031.73 880.454L1052.2 845.006L990.799 809.557L890.15 635.228L789.5 693.338L688.851 635.228L588.201 809.557Z" fill="#632721"/>
<path d="M975.388 185.99L789.397 0L603.407 185.99H340.377V449.02L154.387 635.01L340.377 821V1084.03H603.407L789.397 1270.02L975.388 1084.03H1238.42V821L1424.41 635.01L1238.42 449.02V185.99H975.388Z" fill="#FF7A6D"/>
<circle cx="789.026" cy="634.638" r="290.508" fill="#FFC8C3"/>
<circle cx="789.026" cy="634.638" r="290.508" fill="#FFC8C3"/>
<path d="M688.409 362.111C634.508 382.012 587.719 417.448 553.958 463.94C520.197 510.432 500.981 565.891 498.739 623.304C496.498 680.717 511.332 737.506 541.365 786.489C571.398 835.472 615.282 874.448 667.467 898.49C699.104 910.489 713.169 916.513 735.992 919.843C696.542 901.668 610.432 826.148 576.89 748.367C557.174 702.645 554.572 669.201 556.266 625.8C557.961 582.398 569.862 546.792 590.443 500.875C623.74 426.594 699.37 363.299 740.117 348.256C720.135 351.64 708.792 354.96 688.409 362.111Z" fill="#FFC8C3"/>
<path d="M688.409 362.111C634.508 382.012 587.719 417.448 553.958 463.94C520.197 510.432 500.981 565.891 498.739 623.304C496.498 680.717 511.332 737.506 541.365 786.489C571.398 835.472 615.282 874.448 667.467 898.49C699.104 910.489 713.169 916.513 735.992 919.843C696.542 901.668 610.432 826.148 576.89 748.367C557.174 702.645 554.572 669.201 556.266 625.8C557.961 582.398 569.862 546.792 590.443 500.875C623.74 426.594 699.37 363.299 740.117 348.256C720.135 351.64 708.792 354.96 688.409 362.111Z" fill="#D6A7A3"/>
<path d="M758.152 792.227L635.197 670.32C634.496 669.625 634.092 668.628 634.087 667.578L633.868 626.564C633.851 623.377 637.199 621.668 639.327 623.777L757.88 741.32C759.221 742.65 761.263 742.53 762.473 741.052L978.155 477.59C980.174 475.124 983.841 476.714 983.858 480.064L984.072 520.141C984.077 521.073 983.768 521.973 983.206 522.659L762.745 791.958C761.534 793.437 759.493 793.557 758.152 792.227Z" fill="#6A6D6A"/>
<path d="M744.191 791.963L621.236 670.055C620.535 669.36 620.131 668.363 620.126 667.313L619.907 626.299C619.89 623.112 623.238 621.403 625.366 623.513L743.919 741.056C745.26 742.385 747.302 742.266 748.512 740.787L964.194 477.326C966.213 474.859 969.88 476.449 969.897 479.799L970.111 519.877C970.116 520.809 969.807 521.708 969.245 522.394L748.784 791.694C747.573 793.172 745.532 793.292 744.191 791.963Z" fill="#628E57"/>
</svg>
