<svg width="476" height="150" viewBox="0 0 476 150" fill="none" xmlns="http://www.w3.org/2000/svg">
<path d="M90.2817 112.115L57.7803 68.0043V112.115H90.2817Z" fill="#48385E"/>
<path d="M91.1845 114.872H57.7803V142.922H112.511L91.1845 114.872Z" fill="#48385E"/>
<path d="M48.7521 13.7846L54.169 0V143.36H46.9465L48.7521 13.7846Z" fill="#FF4A41"/>
<path d="M34.307 52.3817L43.3352 27.5693V143.36H34.307V52.3817Z" fill="#FF4A41"/>
<path d="M23.4732 80.8699L30.6958 60.6524V143.36H23.4732V80.8699Z" fill="#FF4A41"/>
<path d="M10.8338 113.953L19.862 90.0597V143.36H10.8338V113.953Z" fill="#FF4A41"/>
<path d="M0 143.36L7.22253 124.981V143.36H0Z" fill="#FF4A41"/>
<path d="M0 141.546H475.448V146.99H0V141.546Z" fill="#4D3B63"/>
<path d="M89.802 90.8795C88.8342 90.8795 87.9329 90.7162 87.0981 90.3896C86.2754 90.0629 85.5617 89.6093 84.9568 89.0286C84.3519 88.4358 83.8801 87.7462 83.5413 86.9598C83.2026 86.1734 83.0332 85.3145 83.0332 84.3829C83.0332 83.4514 83.2026 82.5925 83.5413 81.8061C83.8801 81.0197 84.3519 80.3362 84.9568 79.7555C85.5617 79.1627 86.2754 78.703 87.0981 78.3763C87.9208 78.0497 88.8221 77.8864 89.802 77.8864C90.7698 77.8864 91.659 78.0497 92.4696 78.3763C93.2922 78.6909 94.006 79.1446 94.6109 79.7373C95.2279 80.318 95.6997 81.0016 96.0264 81.7879C96.3651 82.5743 96.5345 83.4393 96.5345 84.3829C96.5345 85.3266 96.3651 86.1916 96.0264 86.978C95.6997 87.7643 95.2279 88.4539 94.6109 89.0467C94.006 89.6274 93.2922 90.0811 92.4696 90.4077C91.659 90.7223 90.7698 90.8795 89.802 90.8795ZM89.802 89.2645C90.5037 89.2645 91.1509 89.1435 91.7437 88.9015C92.3486 88.6596 92.8688 88.3208 93.3043 87.8853C93.752 87.4377 94.0967 86.9175 94.3387 86.3247C94.5928 85.7319 94.7198 85.0846 94.7198 84.3829C94.7198 83.6813 94.5928 83.034 94.3387 82.4412C94.0967 81.8484 93.752 81.3343 93.3043 80.8987C92.8688 80.4511 92.3486 80.1063 91.7437 79.8644C91.1509 79.6224 90.5037 79.5014 89.802 79.5014C89.0882 79.5014 88.4289 79.6224 87.824 79.8644C87.2312 80.1063 86.711 80.4511 86.2633 80.8987C85.8157 81.3343 85.4649 81.8484 85.2108 82.4412C84.9689 83.034 84.8479 83.6813 84.8479 84.3829C84.8479 85.0846 84.9689 85.7319 85.2108 86.3247C85.4649 86.9175 85.8157 87.4377 86.2633 87.8853C86.711 88.3208 87.2312 88.6596 87.824 88.9015C88.4289 89.1435 89.0882 89.2645 89.802 89.2645Z" fill="black"/>
<path d="M104.477 89.21L104.077 89.6637V81.1165H105.819V89.6637L105.384 89.21H110.465L110.048 89.6637V81.1165H111.79V90.7344H98.0889V81.1165H99.831V89.6637L99.4136 89.21H104.477ZM111.572 92.785V90.2807L111.989 90.7344H109.957V89.21H113.205V92.785H111.572Z" fill="black"/>
<path d="M118.366 90.8432C117.338 90.8432 116.431 90.6315 115.644 90.2081C114.87 89.7847 114.265 89.204 113.83 88.466C113.406 87.728 113.194 86.8812 113.194 85.9254C113.194 84.9697 113.4 84.1228 113.811 83.3849C114.235 82.6469 114.81 82.0722 115.535 81.6609C116.273 81.2375 117.102 81.0258 118.022 81.0258C118.953 81.0258 119.776 81.2314 120.489 81.6428C121.203 82.0541 121.76 82.6348 122.159 83.3849C122.57 84.1228 122.776 84.9878 122.776 85.9799C122.776 86.0525 122.77 86.1371 122.758 86.2339C122.758 86.3307 122.752 86.4214 122.74 86.5061H114.555V85.254H121.832L121.125 85.6895C121.137 85.0725 121.01 84.5221 120.744 84.0382C120.477 83.5542 120.108 83.1792 119.637 82.9131C119.177 82.6348 118.639 82.4957 118.022 82.4957C117.417 82.4957 116.878 82.6348 116.406 82.9131C115.935 83.1792 115.566 83.5603 115.299 84.0563C115.033 84.5402 114.9 85.0967 114.9 85.7258V86.0162C114.9 86.6574 115.045 87.232 115.336 87.7401C115.638 88.2361 116.056 88.6233 116.588 88.9015C117.12 89.1798 117.731 89.3189 118.421 89.3189C118.989 89.3189 119.504 89.2221 119.963 89.0286C120.435 88.835 120.846 88.5446 121.197 88.1575L122.159 89.2826C121.723 89.7907 121.179 90.1779 120.526 90.444C119.885 90.7102 119.165 90.8432 118.366 90.8432Z" fill="black"/>
<path d="M128.582 90.8432C127.602 90.8432 126.725 90.6315 125.95 90.2081C125.188 89.7847 124.589 89.204 124.154 88.466C123.718 87.728 123.501 86.8812 123.501 85.9254C123.501 84.9697 123.718 84.1228 124.154 83.3849C124.589 82.6469 125.188 82.0722 125.95 81.6609C126.725 81.2375 127.602 81.0258 128.582 81.0258C129.453 81.0258 130.227 81.2012 130.905 81.552C131.594 81.8908 132.126 82.3989 132.501 83.0764L131.177 83.9293C130.862 83.4575 130.475 83.1127 130.015 82.8949C129.568 82.665 129.084 82.5501 128.564 82.5501C127.934 82.5501 127.372 82.6892 126.876 82.9675C126.38 83.2457 125.987 83.6389 125.696 84.147C125.406 84.6431 125.261 85.2359 125.261 85.9254C125.261 86.615 125.406 87.2139 125.696 87.722C125.987 88.2301 126.38 88.6233 126.876 88.9015C127.372 89.1798 127.934 89.3189 128.564 89.3189C129.084 89.3189 129.568 89.21 130.015 88.9923C130.475 88.7624 130.862 88.4116 131.177 87.9397L132.501 88.7745C132.126 89.4399 131.594 89.954 130.905 90.317C130.227 90.6678 129.453 90.8432 128.582 90.8432Z" fill="black"/>
<path d="M135.449 90.7344V82.1872L135.885 82.6408H131.929V81.1165H140.712V82.6408H136.774L137.192 82.1872V90.7344H135.449Z" fill="black"/>
<path d="M141.405 90.7344V81.1165H145.869C146.994 81.1165 147.877 81.3343 148.518 81.7698C149.171 82.1932 149.498 82.7981 149.498 83.5845C149.498 84.3709 149.19 84.9818 148.573 85.4173C147.968 85.8407 147.163 86.0525 146.159 86.0525L146.431 85.5806C147.581 85.5806 148.434 85.7924 148.99 86.2158C149.547 86.6392 149.825 87.2623 149.825 88.0849C149.825 88.9197 149.51 89.573 148.881 90.0448C148.264 90.5045 147.314 90.7344 146.032 90.7344H141.405ZM143.11 89.3915H145.905C146.631 89.3915 147.175 89.2826 147.538 89.0648C147.901 88.835 148.083 88.472 148.083 87.976C148.083 87.4679 147.913 87.0989 147.575 86.8691C147.248 86.6271 146.728 86.5061 146.014 86.5061H143.11V89.3915ZM143.11 85.254H145.724C146.389 85.254 146.891 85.133 147.23 84.8911C147.581 84.637 147.756 84.2862 147.756 83.8385C147.756 83.3788 147.581 83.034 147.23 82.8042C146.891 82.5743 146.389 82.4594 145.724 82.4594H143.11V85.254Z" fill="black"/>
<path d="M155.582 90.8432C154.614 90.8432 153.755 90.6315 153.005 90.2081C152.255 89.7847 151.662 89.204 151.227 88.466C150.791 87.7159 150.573 86.8691 150.573 85.9254C150.573 84.9697 150.791 84.1228 151.227 83.3849C151.662 82.6469 152.255 82.0722 153.005 81.6609C153.755 81.2375 154.614 81.0258 155.582 81.0258C156.538 81.0258 157.391 81.2375 158.141 81.6609C158.903 82.0722 159.496 82.6469 159.919 83.3849C160.355 84.1107 160.572 84.9576 160.572 85.9254C160.572 86.8812 160.355 87.728 159.919 88.466C159.496 89.204 158.903 89.7847 158.141 90.2081C157.391 90.6315 156.538 90.8432 155.582 90.8432ZM155.582 89.3189C156.199 89.3189 156.749 89.1798 157.233 88.9015C157.729 88.6233 158.117 88.2301 158.395 87.722C158.673 87.2018 158.812 86.6029 158.812 85.9254C158.812 85.2359 158.673 84.6431 158.395 84.147C158.117 83.6389 157.729 83.2457 157.233 82.9675C156.749 82.6892 156.199 82.5501 155.582 82.5501C154.965 82.5501 154.415 82.6892 153.931 82.9675C153.447 83.2457 153.06 83.6389 152.769 84.147C152.479 84.6431 152.334 85.2359 152.334 85.9254C152.334 86.6029 152.479 87.2018 152.769 87.722C153.06 88.2301 153.447 88.6233 153.931 88.9015C154.415 89.1798 154.965 89.3189 155.582 89.3189Z" fill="black"/>
<path d="M169.976 90.8432C168.996 90.8432 168.119 90.6315 167.344 90.2081C166.582 89.7847 165.983 89.204 165.548 88.466C165.112 87.728 164.895 86.8812 164.895 85.9254C164.895 84.9697 165.112 84.1228 165.548 83.3849C165.983 82.6469 166.582 82.0722 167.344 81.6609C168.119 81.2375 168.996 81.0258 169.976 81.0258C170.847 81.0258 171.621 81.2012 172.299 81.552C172.988 81.8908 173.52 82.3989 173.895 83.0764L172.571 83.9293C172.256 83.4575 171.869 83.1127 171.409 82.8949C170.962 82.665 170.478 82.5501 169.958 82.5501C169.329 82.5501 168.766 82.6892 168.27 82.9675C167.774 83.2457 167.381 83.6389 167.09 84.147C166.8 84.6431 166.655 85.2359 166.655 85.9254C166.655 86.615 166.8 87.2139 167.09 87.722C167.381 88.2301 167.774 88.6233 168.27 88.9015C168.766 89.1798 169.329 89.3189 169.958 89.3189C170.478 89.3189 170.962 89.21 171.409 88.9923C171.869 88.7624 172.256 88.4116 172.571 87.9397L173.895 88.7745C173.52 89.4399 172.988 89.954 172.299 90.317C171.621 90.6678 170.847 90.8432 169.976 90.8432Z" fill="black"/>
<path d="M182.966 90.8432C181.998 90.8432 181.139 90.6315 180.389 90.2081C179.639 89.7847 179.046 89.204 178.611 88.466C178.175 87.7159 177.958 86.8691 177.958 85.9254C177.958 84.9697 178.175 84.1228 178.611 83.3849C179.046 82.6469 179.639 82.0722 180.389 81.6609C181.139 81.2375 181.998 81.0258 182.966 81.0258C183.922 81.0258 184.775 81.2375 185.525 81.6609C186.287 82.0722 186.88 82.6469 187.303 83.3849C187.739 84.1107 187.956 84.9576 187.956 85.9254C187.956 86.8812 187.739 87.728 187.303 88.466C186.88 89.204 186.287 89.7847 185.525 90.2081C184.775 90.6315 183.922 90.8432 182.966 90.8432ZM182.966 89.3189C183.583 89.3189 184.134 89.1798 184.617 88.9015C185.113 88.6233 185.501 88.2301 185.779 87.722C186.057 87.2018 186.196 86.6029 186.196 85.9254C186.196 85.2359 186.057 84.6431 185.779 84.147C185.501 83.6389 185.113 83.2457 184.617 82.9675C184.134 82.6892 183.583 82.5501 182.966 82.5501C182.349 82.5501 181.799 82.6892 181.315 82.9675C180.831 83.2457 180.444 83.6389 180.153 84.147C179.863 84.6431 179.718 85.2359 179.718 85.9254C179.718 86.6029 179.863 87.2018 180.153 87.722C180.444 88.2301 180.831 88.6233 181.315 88.9015C181.799 89.1798 182.349 89.3189 182.966 89.3189Z" fill="black"/>
<path d="M189.383 90.7344V81.1165H196.461V82.6408H190.708L191.125 82.2416V90.7344H189.383Z" fill="black"/>
<path d="M202.254 90.8432C201.456 90.8432 200.724 90.6618 200.059 90.2988C199.405 89.9238 198.879 89.3733 198.48 88.6475C198.093 87.9216 197.899 87.0142 197.899 85.9254C197.899 84.8366 198.087 83.9293 198.462 83.2034C198.849 82.4775 199.369 81.9331 200.022 81.5702C200.688 81.2072 201.432 81.0258 202.254 81.0258C203.198 81.0258 204.033 81.2314 204.759 81.6428C205.485 82.0541 206.059 82.6288 206.483 83.3667C206.906 84.0926 207.118 84.9455 207.118 85.9254C207.118 86.9054 206.906 87.7643 206.483 88.5023C206.059 89.2403 205.485 89.8149 204.759 90.2262C204.033 90.6376 203.198 90.8432 202.254 90.8432ZM197.155 94.2549V81.1165H198.825V83.7115L198.716 85.9436L198.897 88.1756V94.2549H197.155ZM202.109 89.3189C202.726 89.3189 203.277 89.1798 203.761 88.9015C204.257 88.6233 204.644 88.2301 204.922 87.722C205.212 87.2018 205.358 86.6029 205.358 85.9254C205.358 85.2359 205.212 84.6431 204.922 84.147C204.644 83.6389 204.257 83.2457 203.761 82.9675C203.277 82.6892 202.726 82.5501 202.109 82.5501C201.504 82.5501 200.954 82.6892 200.458 82.9675C199.974 83.2457 199.587 83.6389 199.297 84.147C199.018 84.6431 198.879 85.2359 198.879 85.9254C198.879 86.6029 199.018 87.2018 199.297 87.722C199.587 88.2301 199.974 88.6233 200.458 88.9015C200.954 89.1798 201.504 89.3189 202.109 89.3189Z" fill="black"/>
<path d="M214.369 90.7344V88.7019L214.278 88.3208V84.8548C214.278 84.1168 214.061 83.5482 213.625 83.149C213.202 82.7376 212.561 82.532 211.702 82.532C211.133 82.532 210.577 82.6288 210.032 82.8223C209.488 83.0038 209.028 83.2518 208.653 83.5663L207.927 82.2598C208.423 81.8605 209.016 81.5581 209.705 81.3524C210.407 81.1347 211.139 81.0258 211.901 81.0258C213.22 81.0258 214.236 81.3464 214.95 81.9876C215.664 82.6288 216.021 83.6087 216.021 84.9274V90.7344H214.369ZM211.212 90.8432C210.498 90.8432 209.869 90.7223 209.324 90.4803C208.792 90.2383 208.381 89.9056 208.09 89.4822C207.8 89.0467 207.655 88.5567 207.655 88.0123C207.655 87.4921 207.776 87.0203 208.018 86.5969C208.272 86.1734 208.677 85.8347 209.234 85.5806C209.802 85.3266 210.564 85.1996 211.52 85.1996H214.569V86.4517H211.593C210.722 86.4517 210.135 86.5969 209.833 86.8872C209.53 87.1776 209.379 87.5284 209.379 87.9397C209.379 88.4116 209.566 88.7926 209.941 89.083C210.316 89.3612 210.837 89.5004 211.502 89.5004C212.155 89.5004 212.724 89.3552 213.208 89.0648C213.704 88.7745 214.061 88.3511 214.278 87.7946L214.623 88.9923C214.393 89.5609 213.988 90.0145 213.407 90.3533C212.827 90.6799 212.095 90.8432 211.212 90.8432Z" fill="black"/>
<path d="M218.069 90.7344V81.1165H219.811V85.1996H225.291V81.1165H227.033V90.7344H225.291V86.7057H219.811V90.7344H218.069Z" fill="black"/>
<path d="M229.332 90.7344V81.1165H231.074V88.1212L236.972 81.1165H238.551V90.7344H236.808V83.7297L230.929 90.7344H229.332Z" fill="black"/>
<path d="M246.904 86.7965C246.396 87.0384 245.87 87.232 245.325 87.3772C244.793 87.5103 244.243 87.5768 243.674 87.5768C242.513 87.5768 241.593 87.3046 240.916 86.7602C240.25 86.2158 239.918 85.375 239.918 84.2378V81.1165H241.66V84.1289C241.66 84.8185 241.871 85.3266 242.295 85.6532C242.73 85.9799 243.311 86.1432 244.037 86.1432C244.497 86.1432 244.969 86.0827 245.452 85.9617C245.948 85.8407 246.432 85.6714 246.904 85.4536V86.7965ZM246.777 90.7344V81.1165H248.519V90.7344H246.777Z" fill="black"/>
<path d="M255.095 90.8432C254.067 90.8432 253.16 90.6315 252.373 90.2081C251.599 89.7847 250.994 89.204 250.559 88.466C250.135 87.728 249.923 86.8812 249.923 85.9254C249.923 84.9697 250.129 84.1228 250.54 83.3849C250.964 82.6469 251.538 82.0722 252.264 81.6609C253.002 81.2375 253.831 81.0258 254.75 81.0258C255.682 81.0258 256.505 81.2314 257.218 81.6428C257.932 82.0541 258.489 82.6348 258.888 83.3849C259.299 84.1228 259.505 84.9878 259.505 85.9799C259.505 86.0525 259.499 86.1371 259.487 86.2339C259.487 86.3307 259.481 86.4214 259.469 86.5061H251.284V85.254H258.561L257.854 85.6895C257.866 85.0725 257.739 84.5221 257.472 84.0382C257.206 83.5542 256.837 83.1792 256.366 82.9131C255.906 82.6348 255.367 82.4957 254.75 82.4957C254.146 82.4957 253.607 82.6348 253.135 82.9131C252.664 83.1792 252.295 83.5603 252.028 84.0563C251.762 84.5402 251.629 85.0967 251.629 85.7258V86.0162C251.629 86.6574 251.774 87.232 252.065 87.7401C252.367 88.2361 252.785 88.6233 253.317 88.9015C253.849 89.1798 254.46 89.3189 255.15 89.3189C255.718 89.3189 256.232 89.2221 256.692 89.0286C257.164 88.835 257.575 88.5446 257.926 88.1575L258.888 89.2826C258.452 89.7907 257.908 90.1779 257.255 90.444C256.614 90.7102 255.894 90.8432 255.095 90.8432Z" fill="black"/>
<path d="M261.119 90.7344V81.1165H262.861V85.1996H268.341V81.1165H270.083V90.7344H268.341V86.7057H262.861V90.7344H261.119Z" fill="black"/>
<path d="M272.382 90.7344V81.1165H274.124V85.1996H279.604V81.1165H281.346V90.7344H279.604V86.7057H274.124V90.7344H272.382Z" fill="black"/>
<path d="M287.764 90.8432C286.796 90.8432 285.937 90.6315 285.187 90.2081C284.437 89.7847 283.845 89.204 283.409 88.466C282.974 87.7159 282.756 86.8691 282.756 85.9254C282.756 84.9697 282.974 84.1228 283.409 83.3849C283.845 82.6469 284.437 82.0722 285.187 81.6609C285.937 81.2375 286.796 81.0258 287.764 81.0258C288.72 81.0258 289.573 81.2375 290.323 81.6609C291.085 82.0722 291.678 82.6469 292.101 83.3849C292.537 84.1107 292.755 84.9576 292.755 85.9254C292.755 86.8812 292.537 87.728 292.101 88.466C291.678 89.204 291.085 89.7847 290.323 90.2081C289.573 90.6315 288.72 90.8432 287.764 90.8432ZM287.764 89.3189C288.381 89.3189 288.932 89.1798 289.416 88.9015C289.912 88.6233 290.299 88.2301 290.577 87.722C290.855 87.2018 290.994 86.6029 290.994 85.9254C290.994 85.2359 290.855 84.6431 290.577 84.147C290.299 83.6389 289.912 83.2457 289.416 82.9675C288.932 82.6892 288.381 82.5501 287.764 82.5501C287.147 82.5501 286.597 82.6892 286.113 82.9675C285.629 83.2457 285.242 83.6389 284.952 84.147C284.661 84.6431 284.516 85.2359 284.516 85.9254C284.516 86.6029 284.661 87.2018 284.952 87.722C285.242 88.2301 285.629 88.6233 286.113 88.9015C286.597 89.1798 287.147 89.3189 287.764 89.3189Z" fill="black"/>
<path d="M294.181 90.7344V81.1165H295.924V88.1212L301.821 81.1165H303.4V90.7344H301.658V83.7297L295.778 90.7344H294.181ZM298.682 79.8644C297.799 79.8644 297.103 79.6527 296.595 79.2292C296.099 78.7937 295.845 78.1707 295.833 77.3601H297.012C297.024 77.8198 297.176 78.1828 297.466 78.4489C297.769 78.7151 298.168 78.8482 298.664 78.8482C299.16 78.8482 299.559 78.7151 299.861 78.4489C300.164 78.1828 300.321 77.8198 300.333 77.3601H301.549C301.537 78.1707 301.277 78.7937 300.769 79.2292C300.261 79.6527 299.565 79.8644 298.682 79.8644Z" fill="black"/>
<path d="M313.597 90.8432C312.629 90.8432 311.77 90.6315 311.02 90.2081C310.27 89.7847 309.677 89.204 309.241 88.466C308.806 87.7159 308.588 86.8691 308.588 85.9254C308.588 84.9697 308.806 84.1228 309.241 83.3849C309.677 82.6469 310.27 82.0722 311.02 81.6609C311.77 81.2375 312.629 81.0258 313.597 81.0258C314.552 81.0258 315.405 81.2375 316.155 81.6609C316.918 82.0722 317.51 82.6469 317.934 83.3849C318.369 84.1107 318.587 84.9576 318.587 85.9254C318.587 86.8812 318.369 87.728 317.934 88.466C317.51 89.204 316.918 89.7847 316.155 90.2081C315.405 90.6315 314.552 90.8432 313.597 90.8432ZM313.597 89.3189C314.214 89.3189 314.764 89.1798 315.248 88.9015C315.744 88.6233 316.131 88.2301 316.409 87.722C316.688 87.2018 316.827 86.6029 316.827 85.9254C316.827 85.2359 316.688 84.6431 316.409 84.147C316.131 83.6389 315.744 83.2457 315.248 82.9675C314.764 82.6892 314.214 82.5501 313.597 82.5501C312.98 82.5501 312.429 82.6892 311.945 82.9675C311.461 83.2457 311.074 83.6389 310.784 84.147C310.494 84.6431 310.348 85.2359 310.348 85.9254C310.348 86.6029 310.494 87.2018 310.784 87.722C311.074 88.2301 311.461 88.6233 311.945 88.9015C312.429 89.1798 312.98 89.3189 313.597 89.3189Z" fill="black"/>
<path d="M321.565 90.7344V82.1872L322 82.6408H318.044V81.1165H326.827V82.6408H322.89L323.307 82.1872V90.7344H321.565Z" fill="black"/>
<path d="M327.52 90.7344V81.1165H331.984C333.109 81.1165 333.992 81.3343 334.634 81.7698C335.287 82.1932 335.613 82.7981 335.613 83.5845C335.613 84.3709 335.305 84.9818 334.688 85.4173C334.083 85.8407 333.279 86.0525 332.274 86.0525L332.547 85.5806C333.696 85.5806 334.549 85.7924 335.105 86.2158C335.662 86.6392 335.94 87.2623 335.94 88.0849C335.94 88.9197 335.626 89.573 334.996 90.0448C334.379 90.5045 333.43 90.7344 332.147 90.7344H327.52ZM329.226 89.3915H332.02C332.746 89.3915 333.291 89.2826 333.654 89.0648C334.017 88.835 334.198 88.472 334.198 87.976C334.198 87.4679 334.029 87.0989 333.69 86.8691C333.363 86.6271 332.843 86.5061 332.129 86.5061H329.226V89.3915ZM329.226 85.254H331.839C332.504 85.254 333.006 85.133 333.345 84.8911C333.696 84.637 333.871 84.2862 333.871 83.8385C333.871 83.3788 333.696 83.034 333.345 82.8042C333.006 82.5743 332.504 82.4594 331.839 82.4594H329.226V85.254Z" fill="black"/>
<path d="M341.861 90.8432C340.832 90.8432 339.925 90.6315 339.139 90.2081C338.364 89.7847 337.759 89.204 337.324 88.466C336.901 87.728 336.689 86.8812 336.689 85.9254C336.689 84.9697 336.894 84.1228 337.306 83.3849C337.729 82.6469 338.304 82.0722 339.03 81.6609C339.768 81.2375 340.596 81.0258 341.516 81.0258C342.447 81.0258 343.27 81.2314 343.984 81.6428C344.698 82.0541 345.254 82.6348 345.653 83.3849C346.065 84.1228 346.27 84.9878 346.27 85.9799C346.27 86.0525 346.264 86.1371 346.252 86.2339C346.252 86.3307 346.246 86.4214 346.234 86.5061H338.05V85.254H345.327L344.619 85.6895C344.631 85.0725 344.504 84.5221 344.238 84.0382C343.972 83.5542 343.603 83.1792 343.131 82.9131C342.671 82.6348 342.133 82.4957 341.516 82.4957C340.911 82.4957 340.373 82.6348 339.901 82.9131C339.429 83.1792 339.06 83.5603 338.794 84.0563C338.528 84.5402 338.395 85.0967 338.395 85.7258V86.0162C338.395 86.6574 338.54 87.232 338.83 87.7401C339.133 88.2361 339.55 88.6233 340.082 88.9015C340.615 89.1798 341.226 89.3189 341.915 89.3189C342.484 89.3189 342.998 89.2221 343.458 89.0286C343.929 88.835 344.341 88.5446 344.692 88.1575L345.653 89.2826C345.218 89.7907 344.673 90.1779 344.02 90.444C343.379 90.7102 342.659 90.8432 341.861 90.8432Z" fill="black"/>
<path d="M349.382 90.7344V82.1872L349.818 82.6408H345.862V81.1165H354.645V82.6408H350.707L351.124 82.1872V90.7344H349.382Z" fill="black"/>
<path d="M359.104 90.8432C358.124 90.8432 357.247 90.6315 356.472 90.2081C355.71 89.7847 355.111 89.204 354.676 88.466C354.24 87.728 354.023 86.8812 354.023 85.9254C354.023 84.9697 354.24 84.1228 354.676 83.3849C355.111 82.6469 355.71 82.0722 356.472 81.6609C357.247 81.2375 358.124 81.0258 359.104 81.0258C359.975 81.0258 360.749 81.2012 361.427 81.552C362.116 81.8908 362.648 82.3989 363.024 83.0764L361.699 83.9293C361.384 83.4575 360.997 83.1127 360.537 82.8949C360.09 82.665 359.606 82.5501 359.086 82.5501C358.457 82.5501 357.894 82.6892 357.398 82.9675C356.902 83.2457 356.509 83.6389 356.218 84.147C355.928 84.6431 355.783 85.2359 355.783 85.9254C355.783 86.615 355.928 87.2139 356.218 87.722C356.509 88.2301 356.902 88.6233 357.398 88.9015C357.894 89.1798 358.457 89.3189 359.086 89.3189C359.606 89.3189 360.09 89.21 360.537 88.9923C360.997 88.7624 361.384 88.4116 361.699 87.9397L363.024 88.7745C362.648 89.4399 362.116 89.954 361.427 90.317C360.749 90.6678 359.975 90.8432 359.104 90.8432Z" fill="black"/>
<path d="M365.971 90.7344V82.1872L366.407 82.6408H362.451V81.1165H371.234V82.6408H367.296L367.714 82.1872V90.7344H365.971Z" fill="black"/>
<path d="M371.927 90.7344V81.1165H376.391C377.516 81.1165 378.399 81.3343 379.04 81.7698C379.694 82.1932 380.02 82.7981 380.02 83.5845C380.02 84.3709 379.712 84.9818 379.095 85.4173C378.49 85.8407 377.685 86.0525 376.681 86.0525L376.953 85.5806C378.103 85.5806 378.956 85.7924 379.512 86.2158C380.069 86.6392 380.347 87.2623 380.347 88.0849C380.347 88.9197 380.032 89.573 379.403 90.0448C378.786 90.5045 377.836 90.7344 376.554 90.7344H371.927ZM373.632 89.3915H376.427C377.153 89.3915 377.697 89.2826 378.06 89.0648C378.423 88.835 378.605 88.472 378.605 87.976C378.605 87.4679 378.435 87.0989 378.097 86.8691C377.77 86.6271 377.25 86.5061 376.536 86.5061H373.632V89.3915ZM373.632 85.254H376.246C376.911 85.254 377.413 85.133 377.752 84.8911C378.103 84.637 378.278 84.2862 378.278 83.8385C378.278 83.3788 378.103 83.034 377.752 82.8042C377.413 82.5743 376.911 82.4594 376.246 82.4594H373.632V85.254Z" fill="black"/>
<path d="M386.267 90.8432C385.239 90.8432 384.332 90.6315 383.545 90.2081C382.771 89.7847 382.166 89.204 381.731 88.466C381.307 87.728 381.095 86.8812 381.095 85.9254C381.095 84.9697 381.301 84.1228 381.712 83.3849C382.136 82.6469 382.711 82.0722 383.436 81.6609C384.174 81.2375 385.003 81.0258 385.923 81.0258C386.854 81.0258 387.677 81.2314 388.391 81.6428C389.104 82.0541 389.661 82.6348 390.06 83.3849C390.471 84.1228 390.677 84.9878 390.677 85.9799C390.677 86.0525 390.671 86.1371 390.659 86.2339C390.659 86.3307 390.653 86.4214 390.641 86.5061H382.456V85.254H389.733L389.026 85.6895C389.038 85.0725 388.911 84.5221 388.645 84.0382C388.378 83.5542 388.009 83.1792 387.538 82.9131C387.078 82.6348 386.54 82.4957 385.923 82.4957C385.318 82.4957 384.779 82.6348 384.307 82.9131C383.836 83.1792 383.467 83.5603 383.201 84.0563C382.934 84.5402 382.801 85.0967 382.801 85.7258V86.0162C382.801 86.6574 382.946 87.232 383.237 87.7401C383.539 88.2361 383.957 88.6233 384.489 88.9015C385.021 89.1798 385.632 89.3189 386.322 89.3189C386.89 89.3189 387.405 89.2221 387.864 89.0286C388.336 88.835 388.747 88.5446 389.098 88.1575L390.06 89.2826C389.625 89.7907 389.08 90.1779 388.427 90.444C387.786 90.7102 387.066 90.8432 386.267 90.8432Z" fill="black"/>
<path d="M392.291 90.7344V81.1165H394.033V85.1996H399.513V81.1165H401.255V90.7344H399.513V86.7057H394.033V90.7344H392.291Z" fill="black"/>
<path d="M403.554 90.7344V81.1165H405.296V85.1996H410.776V81.1165H412.519V90.7344H410.776V86.7057H405.296V90.7344H403.554Z" fill="black"/>
<path d="M418.936 90.8432C417.969 90.8432 417.11 90.6315 416.36 90.2081C415.609 89.7847 415.017 89.204 414.581 88.466C414.146 87.7159 413.928 86.8691 413.928 85.9254C413.928 84.9697 414.146 84.1228 414.581 83.3849C415.017 82.6469 415.609 82.0722 416.36 81.6609C417.11 81.2375 417.969 81.0258 418.936 81.0258C419.892 81.0258 420.745 81.2375 421.495 81.6609C422.257 82.0722 422.85 82.6469 423.274 83.3849C423.709 84.1107 423.927 84.9576 423.927 85.9254C423.927 86.8812 423.709 87.728 423.274 88.466C422.85 89.204 422.257 89.7847 421.495 90.2081C420.745 90.6315 419.892 90.8432 418.936 90.8432ZM418.936 89.3189C419.553 89.3189 420.104 89.1798 420.588 88.9015C421.084 88.6233 421.471 88.2301 421.749 87.722C422.027 87.2018 422.167 86.6029 422.167 85.9254C422.167 85.2359 422.027 84.6431 421.749 84.147C421.471 83.6389 421.084 83.2457 420.588 82.9675C420.104 82.6892 419.553 82.5501 418.936 82.5501C418.319 82.5501 417.769 82.6892 417.285 82.9675C416.801 83.2457 416.414 83.6389 416.124 84.147C415.833 84.6431 415.688 85.2359 415.688 85.9254C415.688 86.6029 415.833 87.2018 416.124 87.722C416.414 88.2301 416.801 88.6233 417.285 88.9015C417.769 89.1798 418.319 89.3189 418.936 89.3189Z" fill="black"/>
<path d="M429.546 90.8432C428.566 90.8432 427.689 90.6315 426.914 90.2081C426.152 89.7847 425.553 89.204 425.118 88.466C424.682 87.728 424.464 86.8812 424.464 85.9254C424.464 84.9697 424.682 84.1228 425.118 83.3849C425.553 82.6469 426.152 82.0722 426.914 81.6609C427.689 81.2375 428.566 81.0258 429.546 81.0258C430.417 81.0258 431.191 81.2012 431.868 81.552C432.558 81.8908 433.09 82.3989 433.465 83.0764L432.141 83.9293C431.826 83.4575 431.439 83.1127 430.979 82.8949C430.531 82.665 430.048 82.5501 429.527 82.5501C428.898 82.5501 428.336 82.6892 427.84 82.9675C427.344 83.2457 426.951 83.6389 426.66 84.147C426.37 84.6431 426.225 85.2359 426.225 85.9254C426.225 86.615 426.37 87.2139 426.66 87.722C426.951 88.2301 427.344 88.6233 427.84 88.9015C428.336 89.1798 428.898 89.3189 429.527 89.3189C430.048 89.3189 430.531 89.21 430.979 88.9923C431.439 88.7624 431.826 88.4116 432.141 87.9397L433.465 88.7745C433.09 89.4399 432.558 89.954 431.868 90.317C431.191 90.6678 430.417 90.8432 429.546 90.8432Z" fill="black"/>
<path d="M436.413 90.7344V82.1872L436.849 82.6408H432.893V81.1165H441.676V82.6408H437.738L438.155 82.1872V90.7344H436.413Z" fill="black"/>
<path d="M446.814 84.3829C448.036 84.395 448.968 84.6733 449.609 85.2177C450.25 85.7621 450.571 86.5303 450.571 87.5224C450.571 88.5628 450.22 89.3673 449.518 89.9359C448.817 90.4924 447.825 90.7646 446.542 90.7525L442.368 90.7344V81.1165H444.111V84.3648L446.814 84.3829ZM446.397 89.4278C447.183 89.4399 447.776 89.2826 448.175 88.956C448.587 88.6293 448.792 88.1454 448.792 87.5042C448.792 86.8751 448.593 86.4154 448.194 86.125C447.794 85.8347 447.196 85.6835 446.397 85.6714L444.111 85.6351V89.4096L446.397 89.4278Z" fill="black"/>
<path d="M451.718 90.7344V81.1165H453.46V85.0544H456.363V86.6695H453.46V90.7344H451.718ZM460.228 90.8432C459.285 90.8432 458.444 90.6315 457.706 90.2081C456.98 89.7847 456.406 89.204 455.982 88.466C455.559 87.7159 455.347 86.8691 455.347 85.9254C455.347 84.9697 455.559 84.1228 455.982 83.3849C456.406 82.6348 456.98 82.0541 457.706 81.6428C458.444 81.2314 459.285 81.0258 460.228 81.0258C461.16 81.0258 461.995 81.2314 462.733 81.6428C463.471 82.0541 464.051 82.6348 464.475 83.3849C464.898 84.1228 465.11 84.9697 465.11 85.9254C465.11 86.8812 464.898 87.728 464.475 88.466C464.051 89.204 463.471 89.7847 462.733 90.2081C461.995 90.6315 461.16 90.8432 460.228 90.8432ZM460.228 89.3189C460.833 89.3189 461.372 89.1798 461.844 88.9015C462.315 88.6112 462.69 88.218 462.969 87.722C463.247 87.2139 463.386 86.615 463.386 85.9254C463.386 85.2359 463.247 84.6431 462.969 84.147C462.69 83.6389 462.315 83.2457 461.844 82.9675C461.372 82.6892 460.833 82.5501 460.228 82.5501C459.636 82.5501 459.097 82.6892 458.613 82.9675C458.142 83.2457 457.767 83.6389 457.488 84.147C457.21 84.6431 457.071 85.2359 457.071 85.9254C457.071 86.615 457.21 87.2139 457.488 87.722C457.767 88.218 458.142 88.6112 458.613 88.9015C459.097 89.1798 459.636 89.3189 460.228 89.3189Z" fill="black"/>
<path d="M101.627 110.576L99.5397 119.049L99.0389 116.628C99.8458 116.628 100.514 116.879 101.042 117.38C101.571 117.88 101.835 118.548 101.835 119.383C101.835 120.218 101.571 120.899 101.042 121.428C100.514 121.957 99.8597 122.221 99.0806 122.221C98.2737 122.221 97.6059 121.957 97.0772 121.428C96.5485 120.872 96.2842 120.19 96.2842 119.383C96.2842 119.105 96.2981 118.84 96.3259 118.59C96.3816 118.34 96.465 118.047 96.5763 117.713C96.6876 117.352 96.8407 116.92 97.0355 116.42L98.9971 110.576H101.627ZM109.515 110.576L107.428 119.049L106.927 116.628C107.734 116.628 108.402 116.879 108.931 117.38C109.459 117.88 109.724 118.548 109.724 119.383C109.724 120.218 109.459 120.899 108.931 121.428C108.402 121.957 107.748 122.221 106.969 122.221C106.162 122.221 105.494 121.957 104.966 121.428C104.437 120.872 104.173 120.19 104.173 119.383C104.173 119.105 104.187 118.84 104.214 118.59C104.27 118.34 104.353 118.047 104.465 117.713C104.576 117.352 104.729 116.92 104.924 116.42L106.886 110.576H109.515Z" fill="black"/>
<path d="M133.431 141.546L122.83 127.146L126.211 125.059L138.19 141.546H133.431ZM113.773 141.546V112.329H117.863V141.546H113.773ZM116.611 128.691V125.018H126.086V128.691H116.611ZM126.586 127.397L122.747 126.812L133.223 112.329H137.689L126.586 127.397Z" fill="black"/>
<path d="M140.26 149.893C139.202 149.893 138.173 149.712 137.171 149.351C136.169 149.017 135.307 148.516 134.583 147.848L136.294 144.843C136.851 145.372 137.463 145.775 138.131 146.053C138.799 146.332 139.508 146.471 140.26 146.471C141.233 146.471 142.04 146.22 142.68 145.72C143.32 145.219 143.919 144.328 144.475 143.048L145.852 140.001L146.27 139.501L154.951 119.425H158.875L148.148 143.758C147.508 145.316 146.785 146.54 145.978 147.431C145.199 148.321 144.336 148.947 143.39 149.309C142.444 149.699 141.4 149.893 140.26 149.893ZM145.519 142.255L135.418 119.425H139.592L148.19 139.125L145.519 142.255Z" fill="black"/>
<path d="M170.413 141.88C168.577 141.88 166.949 141.588 165.53 141.003C164.139 140.419 162.942 139.556 161.94 138.415C160.939 137.247 160.173 135.786 159.645 134.033C159.144 132.252 158.894 130.165 158.894 127.772C158.894 125.88 159.06 124.183 159.394 122.68C159.728 121.178 160.201 119.842 160.813 118.673C161.453 117.505 162.233 116.489 163.151 115.627C164.097 114.764 165.154 114.054 166.323 113.498C167.519 112.914 168.827 112.468 170.246 112.162L180.347 109.909L180.931 113.623L171.624 115.627C171.067 115.738 170.399 115.905 169.62 116.127C168.841 116.35 168.048 116.698 167.241 117.171C166.434 117.616 165.683 118.242 164.987 119.049C164.292 119.856 163.735 120.913 163.318 122.221C162.9 123.501 162.692 125.087 162.692 126.979C162.692 127.508 162.706 127.911 162.733 128.19C162.761 128.468 162.789 128.746 162.817 129.024C162.873 129.303 162.914 129.72 162.942 130.277L161.273 128.565C161.718 127.035 162.427 125.699 163.401 124.558C164.375 123.418 165.544 122.541 166.907 121.929C168.298 121.289 169.815 120.969 171.457 120.969C173.516 120.969 175.338 121.414 176.924 122.305C178.538 123.195 179.804 124.419 180.722 125.978C181.641 127.536 182.1 129.317 182.1 131.32C182.1 133.351 181.613 135.174 180.639 136.788C179.693 138.374 178.343 139.626 176.59 140.544C174.837 141.434 172.778 141.88 170.413 141.88ZM170.789 138.541C172.208 138.541 173.46 138.235 174.545 137.622C175.63 136.982 176.479 136.134 177.091 135.076C177.703 133.991 178.009 132.781 178.009 131.445C178.009 130.11 177.703 128.927 177.091 127.898C176.479 126.868 175.63 126.061 174.545 125.477C173.46 124.865 172.18 124.558 170.705 124.558C169.314 124.558 168.062 124.851 166.949 125.435C165.836 125.991 164.973 126.784 164.361 127.814C163.749 128.816 163.443 129.984 163.443 131.32C163.443 132.656 163.749 133.88 164.361 134.993C165.001 136.078 165.864 136.941 166.949 137.581C168.062 138.221 169.342 138.541 170.789 138.541Z" fill="black"/>
<path d="M198.679 141.546V136.871L198.47 135.995V128.023C198.47 126.325 197.97 125.018 196.968 124.099C195.994 123.153 194.519 122.68 192.544 122.68C191.236 122.68 189.956 122.903 188.704 123.348C187.452 123.765 186.394 124.336 185.532 125.059L183.862 122.054C185.003 121.136 186.366 120.44 187.952 119.967C189.566 119.466 191.25 119.216 193.003 119.216C196.036 119.216 198.373 119.953 200.015 121.428C201.656 122.903 202.477 125.157 202.477 128.19V141.546H198.679ZM191.417 141.796C189.775 141.796 188.328 141.518 187.076 140.961C185.852 140.405 184.906 139.64 184.238 138.666C183.57 137.664 183.236 136.537 183.236 135.285C183.236 134.089 183.514 133.003 184.071 132.03C184.655 131.056 185.587 130.277 186.867 129.692C188.175 129.108 189.928 128.816 192.126 128.816H199.138V131.696H192.293C190.29 131.696 188.94 132.03 188.245 132.697C187.549 133.365 187.201 134.172 187.201 135.118C187.201 136.203 187.633 137.08 188.495 137.748C189.358 138.388 190.554 138.708 192.085 138.708C193.587 138.708 194.895 138.374 196.008 137.706C197.149 137.038 197.97 136.064 198.47 134.784L199.263 137.539C198.735 138.847 197.803 139.89 196.467 140.669C195.131 141.421 193.448 141.796 191.417 141.796Z" fill="black"/>
<path d="M207.188 141.546V119.425H211.195V128.816H223.8V119.425H227.807V141.546H223.8V132.28H211.195V141.546H207.188Z" fill="black"/>
<path d="M243.319 126.938C246.129 126.965 248.272 127.605 249.747 128.857C251.221 130.11 251.959 131.877 251.959 134.158C251.959 136.551 251.152 138.402 249.538 139.709C247.924 140.989 245.642 141.615 242.693 141.588L233.093 141.546V119.425H237.1V126.896L243.319 126.938ZM242.359 138.541C244.168 138.568 245.531 138.207 246.449 137.455C247.395 136.704 247.868 135.591 247.868 134.116C247.868 132.67 247.409 131.612 246.491 130.944C245.573 130.277 244.196 129.929 242.359 129.901L237.1 129.817V138.499L242.359 138.541Z" fill="black"/>
<path d="M255.264 141.546V112.329H280.432V141.546H276.342V114.875L277.343 115.96H258.353L259.396 114.875V141.546H255.264Z" fill="black"/>
<path d="M295.845 141.796C293.619 141.796 291.644 141.309 289.919 140.335C288.193 139.361 286.83 138.026 285.828 136.329C284.827 134.603 284.326 132.656 284.326 130.485C284.326 128.287 284.827 126.339 285.828 124.642C286.83 122.945 288.193 121.623 289.919 120.677C291.644 119.703 293.619 119.216 295.845 119.216C298.044 119.216 300.005 119.703 301.73 120.677C303.483 121.623 304.847 122.945 305.821 124.642C306.822 126.311 307.323 128.259 307.323 130.485C307.323 132.683 306.822 134.631 305.821 136.329C304.847 138.026 303.483 139.361 301.73 140.335C300.005 141.309 298.044 141.796 295.845 141.796ZM295.845 138.29C297.264 138.29 298.531 137.97 299.644 137.33C300.784 136.69 301.675 135.786 302.315 134.617C302.955 133.421 303.275 132.043 303.275 130.485C303.275 128.899 302.955 127.536 302.315 126.395C301.675 125.226 300.784 124.322 299.644 123.682C298.531 123.042 297.264 122.722 295.845 122.722C294.426 122.722 293.16 123.042 292.047 123.682C290.934 124.322 290.044 125.226 289.376 126.395C288.708 127.536 288.374 128.899 288.374 130.485C288.374 132.043 288.708 133.421 289.376 134.617C290.044 135.786 290.934 136.69 292.047 137.33C293.16 137.97 294.426 138.29 295.845 138.29Z" fill="black"/>
<path d="M336.124 141.546L329.071 130.777L332.368 128.774L340.882 141.546H336.124ZM324.48 132.197V128.774H331.658V132.197H324.48ZM332.744 130.944L328.945 130.444L335.999 119.425H340.298L332.744 130.944ZM311.29 141.546H306.532L315.005 128.774L318.302 130.777L311.29 141.546ZM325.69 141.546H321.683V119.425H325.69V141.546ZM322.893 132.197H315.756V128.774H322.893V132.197ZM314.671 130.944L307.117 119.425H311.374L318.428 130.444L314.671 130.944Z" fill="black"/>
<path d="M339.406 141.546L352.637 112.329H356.769L370.042 141.546H365.659L353.848 114.667H355.517L343.705 141.546H339.406ZM345.041 134.242L346.168 130.903H362.613L363.823 134.242H345.041Z" fill="black"/>
<path d="M371.898 149.893C370.841 149.893 369.811 149.712 368.809 149.351C367.808 149.017 366.945 148.516 366.222 147.848L367.933 144.843C368.489 145.372 369.101 145.775 369.769 146.053C370.437 146.332 371.147 146.471 371.898 146.471C372.872 146.471 373.679 146.22 374.319 145.72C374.959 145.219 375.557 144.328 376.113 143.048L377.491 140.001L377.908 139.501L386.59 119.425H390.513L379.786 143.758C379.146 145.316 378.423 146.54 377.616 147.431C376.837 148.321 375.974 148.947 375.028 149.309C374.082 149.699 373.039 149.893 371.898 149.893ZM377.157 142.255L367.056 119.425H371.23L379.828 139.125L377.157 142.255Z" fill="black"/>
<path d="M406.079 139.668V122.931H396.479L396.271 127.188C396.215 128.579 396.117 129.929 395.978 131.237C395.867 132.516 395.672 133.699 395.394 134.784C395.144 135.869 394.768 136.76 394.267 137.455C393.766 138.151 393.098 138.582 392.264 138.749L388.299 138.04C389.161 138.068 389.857 137.789 390.385 137.205C390.914 136.593 391.318 135.758 391.596 134.701C391.902 133.643 392.125 132.447 392.264 131.111C392.403 129.748 392.514 128.343 392.598 126.896L392.931 119.425H410.086V139.668H406.079ZM387.422 146.68V138.04H413.466V146.68H409.71V141.546H391.22V146.68H387.422Z" fill="black"/>
<path d="M416.182 141.546V119.425H420.189V135.536L433.754 119.425H437.385V141.546H433.378V125.435L419.855 141.546H416.182Z" fill="black"/>
<path d="M447.04 141.546V121.887L448.042 122.931H438.943V119.425H459.144V122.931H450.087L451.047 121.887V141.546H447.04Z" fill="black"/>
<path d="M459.761 121.971L461.847 113.498L462.39 115.919C461.583 115.919 460.901 115.668 460.345 115.167C459.816 114.667 459.552 113.999 459.552 113.164C459.552 112.301 459.816 111.62 460.345 111.119C460.901 110.59 461.569 110.326 462.348 110.326C463.155 110.326 463.809 110.604 464.31 111.161C464.811 111.689 465.061 112.357 465.061 113.164C465.061 113.414 465.047 113.679 465.02 113.957C464.992 114.208 464.922 114.5 464.811 114.834C464.727 115.167 464.588 115.599 464.393 116.127L462.39 121.971H459.761ZM467.649 121.971L469.736 113.498L470.279 115.919C469.472 115.919 468.79 115.668 468.233 115.167C467.705 114.667 467.44 113.999 467.44 113.164C467.44 112.301 467.705 111.62 468.233 111.119C468.79 110.59 469.458 110.326 470.237 110.326C471.044 110.326 471.698 110.604 472.198 111.161C472.699 111.689 472.95 112.357 472.95 113.164C472.95 113.414 472.936 113.679 472.908 113.957C472.88 114.208 472.811 114.5 472.699 114.834C472.616 115.167 472.477 115.599 472.282 116.127L470.279 121.971H467.649Z" fill="black"/>
</svg>
