<svg width="780" height="429" viewBox="0 0 780 429" fill="none" xmlns="http://www.w3.org/2000/svg">
<path d="M0 20C0 8.95432 8.95431 0 20 0H760C771.046 0 780 8.95431 780 20V409C780 420.046 771.046 429 760 429H20C8.9543 429 0 420.046 0 409V20Z" fill="#F0F0F0"/>
<path d="M354 214.5C354 302.589 282.589 374 194.5 374C106.411 374 35 302.589 35 214.5C35 126.411 106.411 55 194.5 55C282.589 55 354 126.411 354 214.5Z" fill="#FD7034"/>
<path d="M321 182.5C321 252.364 264.364 309 194.5 309C124.636 309 68 252.364 68 182.5C68 112.636 124.636 56 194.5 56C264.364 56 321 112.636 321 182.5Z" fill="#FD8B59"/>
<path d="M56.625 131.297C56.625 128.834 58.6716 126.79 61.3107 126.618L70.6107 126.012C73.5242 125.822 76 127.971 76 130.691V178.309C76 181.047 73.4919 183.203 70.5608 182.985L61.2608 182.292C58.6428 182.097 56.625 180.062 56.625 177.616V131.297Z" fill="#474F70"/>
<path d="M45.0004 139.614C45.0004 128.973 66.6857 121.844 67.8689 130.836C68.4411 135.185 67.8689 157.018 67.8689 178.129C67.8689 187.137 45.0009 180.307 45.0004 169.71C44.9996 154.483 45.0003 152.333 45.0004 139.614Z" fill="#17A3BF"/>
<path d="M52.6232 139.594C52.6232 128.969 67.2785 121.852 68.0781 130.83C68.4648 135.171 68.0781 156.97 68.0781 178.049C68.0781 187.042 52.6236 180.223 52.6232 169.642C52.6227 154.439 52.6232 152.293 52.6232 139.594Z" fill="#55CEED"/>
<path d="M223.375 177.703C223.375 180.166 221.328 182.21 218.689 182.382L209.389 182.988C206.476 183.178 204 181.029 204 178.309V130.691C204 127.953 206.508 125.797 209.439 126.015L218.739 126.708C221.357 126.903 223.375 128.938 223.375 131.384V177.703Z" fill="#474F70"/>
<path d="M235 169.386C235 180.027 213.314 187.156 212.131 178.164C211.559 173.815 212.131 151.982 212.131 130.871C212.131 121.863 234.999 128.693 235 139.29C235 154.517 235 156.667 235 169.386Z" fill="#17A3BF"/>
<path d="M227.377 169.406C227.377 180.031 212.721 187.148 211.922 178.17C211.535 173.829 211.922 152.03 211.922 130.951C211.922 121.958 227.376 128.777 227.377 139.358C227.377 154.561 227.377 156.707 227.377 169.406Z" fill="#55CEED"/>
<path d="M207 124C207 147.91 205.909 187.424 194 211.5C182.665 234.417 160.988 242.5 142 242.5C123.464 242.5 98.9656 234.426 86.5 211.5C72.7813 186.269 72 144.951 72 120.5C72 73.8319 103.064 68 142 68C180.936 68 207 77.3319 207 124Z" fill="#EAB689"/>
<path d="M207 123.84C207 147.681 206.079 187.082 196.022 211.089C186.45 233.94 168.145 242 152.111 242C136.458 242 115.771 233.95 105.244 211.089C93.6598 185.931 93 144.73 93 120.35C93 73.8152 119.232 68 152.111 68C184.99 68 207 77.3052 207 123.84Z" fill="#FECD9C"/>
<path d="M173.384 86.367C173.384 99.1097 188 132.5 173.384 131C158.768 129.5 152.556 148.254 133.051 146.5C122.574 145.558 97.0285 117.919 93.0508 153C83.905 139.553 79.5508 120.031 79.5508 107C79.5508 82.1281 107.093 77.0001 133.051 77.0001C159.008 77.0001 173.384 61.4952 173.384 86.367Z" fill="#EAB689"/>
<path d="M73.4739 107.65C71.5088 126.606 71.5086 132.592 73.4739 153.044C74.1074 159.636 89 159.668 89 153.044C89.0001 134.089 92.2622 134.911 100.496 131.096C107.038 128.064 116.709 134.089 116.709 134.089C116.709 134.089 131.163 143.24 141.274 142.569C149.772 142.004 161.418 134.089 161.418 134.089C161.418 134.089 177.423 125.654 185 131.096C192.144 136.226 194 142.569 194 153.044C194 158.225 205.521 158.268 206.127 153.044C208.092 136.084 206.127 133.59 206.127 111.143C206.127 90.8819 191.097 71.787 171.244 69.7392C149.062 67.4512 129.361 67.3895 106.391 69.7392C87.0501 71.7178 75.5088 88.0219 73.4739 107.65Z" fill="#323B5B"/>
<path d="M206.124 111.372C206.124 91.1889 191.139 70.9679 171.143 70.1271C160.419 69.6763 143.352 67.8334 135.814 70.1276C99.5571 81.1616 106.155 121.794 120.267 136.633C120.267 136.633 130.948 143.347 141.088 142.678C149.61 142.116 161.289 134.23 161.289 134.23C161.289 134.23 177.339 125.828 184.938 131.249C192.102 136.36 193.963 142.678 193.963 153.113C193.963 158.274 205.517 158.317 206.124 153.113C208.095 136.218 206.124 133.734 206.124 111.372Z" fill="#474F70"/>
<path d="M112 210H167V281H112V210Z" fill="#FECD9C"/>
<path d="M111.999 235C136.64 241.542 148.034 241.462 166.999 239.5V246C166.999 246 153.533 250.715 140.5 252C134.44 252.597 125.06 260.18 124.5 265.5C122.5 284.5 126 280.5 111.999 280.5C110.418 277.914 112.132 271.889 111.999 263.5V235Z" fill="#EAB689"/>
<path d="M219.5 204.266V161.056C219.5 159.92 218.58 159 217.444 159C216.354 159 215.453 159.852 215.392 160.941L213.299 198.61C213.129 201.674 210.674 204.116 207.608 204.27L183.158 205.492C183.053 205.497 182.948 205.511 182.845 205.533C180.487 206.029 180.849 209.5 183.258 209.5H214.266C217.157 209.5 219.5 207.157 219.5 204.266Z" fill="#474F70"/>
<path d="M190 207.5C190 211.642 186.642 215 182.5 215C178.358 215 175 211.642 175 207.5C175 203.358 178.358 200 182.5 200C186.642 200 190 203.358 190 207.5Z" fill="#55CEED"/>
<path d="M99 160C99 157.239 101.239 155 104 155H120C122.761 155 125 157.239 125 160V165C125 167.761 122.761 170 120 170H104C101.239 170 99 167.761 99 165V160Z" fill="#EAB689"/>
<path d="M99 163C99 160.239 101.239 158 104 158H120C122.761 158 125 160.239 125 163V165C125 167.761 122.761 170 120 170H104C101.239 170 99 167.761 99 165V163Z" fill="#E6E8EC"/>
<path d="M112 169C116.418 169 120 165.642 120 161.5C120 160.236 119.666 159.045 119.077 158H104.923C104.334 159.045 104 160.236 104 161.5C104 165.642 107.582 169 112 169Z" fill="#474F70"/>
<path d="M159 160C159 157.239 161.239 155 164 155H180C182.761 155 185 157.239 185 160V165C185 167.761 182.761 170 180 170H164C161.239 170 159 167.761 159 165V160Z" fill="#EAB689"/>
<path d="M159 163C159 160.239 161.239 158 164 158H180C182.761 158 185 160.239 185 163V165C185 167.761 182.761 170 180 170H164C161.239 170 159 167.761 159 165V163Z" fill="#E6E8EC"/>
<path d="M172 169C176.418 169 180 165.642 180 161.5C180 160.236 179.666 159.045 179.077 158H164.923C164.334 159.045 164 160.236 164 161.5C164 165.642 167.582 169 172 169Z" fill="#474F70"/>
<path d="M157 150C157 148.343 158.343 147 160 147H184C185.657 147 187 148.343 187 150C187 151.657 185.657 153 184 153H160C158.343 153 157 151.657 157 150Z" fill="#EAB689"/>
<path d="M139.059 194.086C135.395 195.447 132.038 191.798 132.038 187.889V161.796C132.038 160.939 131.897 160.081 131.531 159.307C130.102 156.283 128.168 154.834 124.781 153.165C123.868 152.716 122.857 152.5 121.839 152.5H100.75C99.2312 152.5 98 151.269 98 149.75C98 148.231 99.2312 147 100.75 147H134.923C139.309 147.603 141.243 148.612 142.536 151.367C142.88 152.1 143 152.914 143 153.723V188.683C143 189.875 142.748 191.088 141.995 192.011C141.228 192.949 140.313 193.62 139.059 194.086Z" fill="#EAB689"/>
<path d="M124 209.045C124 206.826 126.428 205.453 128.413 206.445C137.029 210.746 143.183 210.662 151.584 206.452C153.57 205.456 156 206.83 156 209.052C156 210.143 155.376 211.145 154.386 211.604C143.606 216.6 136.779 216.703 125.624 211.599C124.629 211.144 124 210.139 124 209.045Z" fill="#EAB689"/>
<path d="M130 222.5C130 221.119 131.119 220 132.5 220H147.5C148.881 220 150 221.119 150 222.5C150 223.881 148.881 225 147.5 225H132.5C131.119 225 130 223.881 130 222.5Z" fill="#EAB689"/>
<path fill-rule="evenodd" clip-rule="evenodd" d="M224.912 371.303C215.348 373.074 205.487 374 195.41 374C132.871 374 78.661 338.343 52 286.25C52.3582 285.818 52.7342 285.401 53.127 285H52.9099L53.3867 284.74C56.0012 282.169 59.3196 280.311 63.0265 279.482L96.9099 261C132.672 267.776 149.978 267.672 176.41 261L212.466 279.411C216.049 280.15 219.283 281.846 221.886 284.222L223.41 285H222.693C226.229 288.608 228.41 293.549 228.41 299V360C228.41 364.195 227.119 368.087 224.912 371.303Z" fill="#55CEED"/>
<path d="M102.45 254.069C103.583 253.23 105.074 253.048 106.374 253.592L134.933 265.526C137.146 266.45 138.053 269.1 136.872 271.187L126.837 288.916C125.489 291.297 122.202 291.652 120.376 289.614L97.0203 263.533C95.4493 261.779 95.7263 259.054 97.618 257.651L102.45 254.069Z" fill="#17A3BF"/>
<path d="M173.027 254.096C171.855 252.986 170.132 252.689 168.656 253.343L140.075 266C137.933 266.949 137.061 269.528 138.189 271.582L147.462 288.473C148.764 290.845 151.997 291.266 153.864 289.307L177.825 264.168C179.352 262.565 179.287 260.027 177.68 258.504L173.027 254.096Z" fill="#17A3BF"/>
<path d="M143 308.5C143 312.09 140.09 315 136.5 315C132.91 315 130 312.09 130 308.5C130 304.91 132.91 302 136.5 302C140.09 302 143 304.91 143 308.5Z" fill="white"/>
<path d="M143 334.5C143 338.09 140.09 341 136.5 341C132.91 341 130 338.09 130 334.5C130 330.91 132.91 328 136.5 328C140.09 328 143 330.91 143 334.5Z" fill="white"/>
<path d="M247.63 303.484L243.122 366.021C260.228 361.001 271.052 355.34 291.298 341.5L291.298 324.64C273.459 323.753 264.176 316.468 247.66 303.507L247.63 303.484Z" fill="#55CEED"/>
<path d="M247.63 303.484L243.126 366.521C244.626 366.509 253.108 363.024 256.096 361.5L259.2 312.393C256.549 310.418 249.991 305.509 247.63 303.484Z" fill="#17A3BF"/>
<path d="M292.8 261.457L268.207 249.651C268.207 249.651 259.225 245.448 253.735 253.265C251.262 256.785 243.389 272.847 243.538 291.846C243.688 310.846 265.736 320.131 291.82 327.467L292.8 261.457Z" fill="#FECD9C"/>
<path d="M269.085 250.472C268.025 249.514 260.454 245.689 253.591 251.594C249.237 255.34 240.267 275.111 243.014 294.205C245.761 313.298 264.228 319.79 291.82 327.467L291.877 323.636C281.431 319.92 266.73 308.772 260.626 302.881C255.86 297.38 252.238 286.947 253.81 279.434C255.382 271.921 257.962 252.197 269.085 250.472Z" fill="#EAB689"/>
<path d="M273.999 223.273L290.998 223.139L291.833 329.136L274.834 329.27L273.999 223.273Z" fill="#474F70"/>
<path d="M263.96 273.427C262.916 270.871 264.143 267.952 266.699 266.908L289.73 257.508C292.287 256.464 295.205 257.691 296.249 260.248L297.347 262.938C298.39 265.495 297.164 268.413 294.607 269.457L271.577 278.857C269.02 279.901 266.101 278.674 265.058 276.118L263.96 273.427Z" fill="#FECD9C"/>
<path d="M263.673 272.745C262.787 270.423 263.95 267.822 266.272 266.936L270.943 265.152C264.003 271.264 267.537 277.692 276.514 276.941L270.909 279.081C268.587 279.967 265.986 278.804 265.1 276.482L263.673 272.745Z" fill="#EAB689"/>
<path d="M269.974 284.866C268.952 282.301 270.203 279.393 272.769 278.371L296.039 269.1C298.604 268.078 301.512 269.329 302.534 271.895L303.673 274.754C304.695 277.319 303.444 280.227 300.879 281.249L277.405 290.516C274.84 291.538 272.135 290.29 271.113 287.725L269.974 284.866Z" fill="#FECD9C"/>
<path d="M270.17 284.18C269.283 281.858 270.447 279.257 272.769 278.371L277.44 276.587C270.185 283.054 273.5 289.602 283.011 288.376L277.405 290.516C275.083 291.402 272.483 290.238 271.596 287.917L270.17 284.18Z" fill="#EAB689"/>
<path d="M274.44 297.071C273.418 294.505 274.84 291.538 277.405 290.516L300.505 281.305C303.07 280.283 305.978 281.534 307 284.099L308.18 287.061C309.202 289.626 307.951 292.534 305.386 293.556L282.116 302.827C279.55 303.849 276.642 302.598 275.62 300.032L274.44 297.071Z" fill="#FECD9C"/>
<path d="M274.361 296.671C273.475 294.349 274.638 291.748 276.96 290.862L281.631 289.079C274.808 295.094 278.029 301.684 287.202 300.867L281.597 303.007C279.275 303.893 276.674 302.73 275.788 300.408L274.361 296.671Z" fill="#EAB689"/>
<path d="M280.395 308.894C279.373 306.329 279.967 303.672 282.532 302.65L299.915 295.736C302.48 294.714 305.389 295.965 306.411 298.53L307.688 301.736C308.71 304.301 307.458 307.209 304.893 308.231L288.168 314.894C285.602 315.916 282.694 314.665 281.672 312.1L280.395 308.894Z" fill="#FECD9C"/>
<path d="M279.934 308.457C279.048 306.136 280.211 303.536 282.532 302.65L287.202 300.867C280.347 307.456 283.588 314.236 292.924 313.052L287.32 315.192C284.999 316.078 282.399 314.914 281.513 312.593L279.934 308.457Z" fill="#EAB689"/>
<path d="M354 153.5C354 191.884 322.884 223 284.5 223C246.116 223 215 191.884 215 153.5C215 115.116 246.116 84 284.5 84C322.884 84 354 115.116 354 153.5Z" fill="#FF4F6F"/>
<path d="M303.764 118.536C305.716 116.583 308.882 116.583 310.835 118.536L321.441 129.142C323.394 131.095 323.394 134.261 321.441 136.213L267.213 190.441C265.261 192.394 262.095 192.394 260.142 190.441L249.536 179.835C247.583 177.882 247.583 174.716 249.536 172.764L303.764 118.536Z" fill="white"/>
<path d="M321.441 172.764C323.394 174.716 323.394 177.882 321.441 179.835L310.835 190.441C308.882 192.394 305.716 192.394 303.764 190.441L249.536 136.213C247.583 134.261 247.583 131.095 249.536 129.142L260.142 118.536C262.095 116.583 265.261 116.583 267.213 118.536L321.441 172.764Z" fill="white"/>
<path d="M423.074 119V88.8999H435.587C438.769 88.8999 441.263 89.5592 443.069 90.8779C444.903 92.1679 445.821 94.0742 445.821 96.5969C445.821 99.0909 444.946 100.983 443.198 102.273C441.449 103.534 439.156 104.165 436.318 104.165L437.049 103.09C440.403 103.09 442.954 103.749 444.703 105.068C446.451 106.387 447.326 108.322 447.326 110.873C447.326 113.453 446.408 115.46 444.574 116.893C442.768 118.298 440.044 119 436.404 119H423.074ZM426.213 116.463H436.404C438.955 116.463 440.89 115.99 442.209 115.044C443.527 114.098 444.187 112.636 444.187 110.658C444.187 108.709 443.527 107.275 442.209 106.358C440.89 105.441 438.955 104.982 436.404 104.982H426.213V116.463ZM426.213 102.531H435.415C437.737 102.531 439.514 102.072 440.747 101.155C442.008 100.209 442.639 98.8186 442.639 96.9839C442.639 95.1492 442.008 93.7732 440.747 92.8559C439.514 91.9099 437.737 91.4369 435.415 91.4369H426.213V102.531Z" fill="black"/>
<path d="M468.944 108.68V106.358H482.059V108.68H468.944ZM471.954 96.2099C474.247 96.2099 476.297 96.7116 478.103 97.7149C479.909 98.6896 481.328 100.051 482.36 101.8C483.42 103.52 483.951 105.484 483.951 107.691C483.951 109.898 483.42 111.876 482.36 113.625C481.328 115.374 479.909 116.75 478.103 117.753C476.297 118.756 474.247 119.258 471.954 119.258C470.09 119.258 468.356 118.971 466.75 118.398C465.174 117.796 463.841 116.936 462.751 115.818L464.557 114.012C465.532 114.929 466.636 115.617 467.868 116.076C469.101 116.506 470.42 116.721 471.825 116.721C473.602 116.721 475.179 116.334 476.555 115.56C477.959 114.757 479.063 113.682 479.866 112.335C480.668 110.959 481.069 109.411 481.069 107.691C481.069 105.971 480.668 104.437 479.866 103.09C479.063 101.714 477.959 100.639 476.555 99.8649C475.179 99.0909 473.602 98.7039 471.825 98.7039C470.42 98.7039 469.101 98.9332 467.868 99.3919C466.636 99.8219 465.532 100.496 464.557 101.413L462.751 99.6499C463.841 98.5032 465.174 97.6432 466.75 97.0699C468.356 96.4966 470.09 96.2099 471.954 96.2099Z" fill="black"/>
<path d="M493.83 119V98.2739L494.604 99.0909H485.273V96.4249H505.44V99.0909H496.109L496.883 98.2739V119H493.83Z" fill="black"/>
<path d="M518.092 119.215C515.914 119.215 513.95 118.728 512.201 117.753C510.481 116.75 509.12 115.388 508.117 113.668C507.113 111.919 506.612 109.927 506.612 107.691C506.612 105.426 507.113 103.434 508.117 101.714C509.12 99.9939 510.481 98.6466 512.201 97.6719C513.921 96.6972 515.885 96.2099 518.092 96.2099C520.328 96.2099 522.306 96.6972 524.026 97.6719C525.775 98.6466 527.137 99.9939 528.112 101.714C529.115 103.434 529.617 105.426 529.617 107.691C529.617 109.927 529.115 111.919 528.112 113.668C527.137 115.388 525.775 116.75 524.026 117.753C522.278 118.728 520.3 119.215 518.092 119.215ZM518.092 116.506C519.726 116.506 521.174 116.148 522.436 115.431C523.697 114.686 524.686 113.654 525.403 112.335C526.148 110.988 526.521 109.44 526.521 107.691C526.521 105.914 526.148 104.366 525.403 103.047C524.686 101.728 523.697 100.711 522.436 99.9939C521.174 99.2486 519.741 98.8759 518.135 98.8759C516.53 98.8759 515.097 99.2486 513.836 99.9939C512.574 100.711 511.571 101.728 510.826 103.047C510.08 104.366 509.707 105.914 509.707 107.691C509.707 109.44 510.08 110.988 510.826 112.335C511.571 113.654 512.574 114.686 513.836 115.431C515.097 116.148 516.516 116.506 518.092 116.506Z" fill="black"/>
<path d="M536.141 119V96.4249H539.194V114.356L554.287 96.4249H556.996V119H553.943V101.026L538.893 119H536.141ZM546.375 93.1569C544.483 93.1569 542.95 92.6839 541.774 91.7379C540.628 90.7632 540.026 89.3729 539.968 87.5669H542.161C542.19 88.7136 542.591 89.6166 543.365 90.2759C544.139 90.9352 545.143 91.2649 546.375 91.2649C547.608 91.2649 548.611 90.9352 549.385 90.2759C550.188 89.6166 550.604 88.7136 550.632 87.5669H552.825C552.797 89.3729 552.195 90.7632 551.019 91.7379C549.844 92.6839 548.296 93.1569 546.375 93.1569Z" fill="black"/>
<path d="M438.898 171L429.61 159.82L432.147 158.315L442.51 171H438.898ZM422.343 171V148.425H425.396V171H422.343ZM424.45 160.938V158.315H431.717V160.938H424.45ZM432.405 160.035L429.567 159.605L438.554 148.425H441.865L432.405 160.035Z" fill="black"/>
<path d="M460.926 171V166.012L460.797 165.195V156.853C460.797 154.932 460.252 153.456 459.163 152.424C458.102 151.392 456.511 150.876 454.39 150.876C452.928 150.876 451.538 151.12 450.219 151.607C448.9 152.094 447.782 152.739 446.865 153.542L445.489 151.263C446.636 150.288 448.012 149.543 449.617 149.027C451.222 148.482 452.914 148.21 454.691 148.21C457.615 148.21 459.865 148.941 461.442 150.403C463.047 151.836 463.85 154.029 463.85 156.982V171H460.926ZM453.143 171.215C451.452 171.215 449.975 170.943 448.714 170.398C447.481 169.825 446.535 169.051 445.876 168.076C445.217 167.073 444.887 165.926 444.887 164.636C444.887 163.461 445.159 162.4 445.704 161.454C446.277 160.479 447.195 159.705 448.456 159.132C449.746 158.53 451.466 158.229 453.616 158.229H461.399V160.508H453.702C451.523 160.508 450.004 160.895 449.144 161.669C448.313 162.443 447.897 163.403 447.897 164.55C447.897 165.84 448.399 166.872 449.402 167.646C450.405 168.42 451.81 168.807 453.616 168.807C455.336 168.807 456.812 168.42 458.045 167.646C459.306 166.843 460.224 165.697 460.797 164.206L461.485 166.313C460.912 167.804 459.908 168.993 458.475 169.882C457.07 170.771 455.293 171.215 453.143 171.215Z" fill="black"/>
<path d="M476.277 171V150.274L477.051 151.091H467.72V148.425H487.887V151.091H478.556L479.33 150.274V171H476.277Z" fill="black"/>
<path d="M500.927 171.215C498.576 171.215 496.512 170.728 494.735 169.753C492.957 168.75 491.567 167.388 490.564 165.668C489.56 163.919 489.059 161.927 489.059 159.691C489.059 157.455 489.532 155.477 490.478 153.757C491.452 152.037 492.771 150.69 494.434 149.715C496.125 148.712 498.017 148.21 500.11 148.21C502.231 148.21 504.109 148.697 505.743 149.672C507.405 150.618 508.71 151.965 509.656 153.714C510.602 155.434 511.075 157.426 511.075 159.691C511.075 159.834 511.06 159.992 511.032 160.164C511.032 160.307 511.032 160.465 511.032 160.637H491.381V158.358H509.398L508.194 159.261C508.194 157.627 507.835 156.179 507.119 154.918C506.431 153.628 505.485 152.625 504.281 151.908C503.077 151.191 501.686 150.833 500.11 150.833C498.562 150.833 497.171 151.191 495.939 151.908C494.706 152.625 493.746 153.628 493.058 154.918C492.37 156.208 492.026 157.684 492.026 159.347V159.82C492.026 161.54 492.398 163.059 493.144 164.378C493.918 165.668 494.978 166.686 496.326 167.431C497.702 168.148 499.264 168.506 501.013 168.506C502.389 168.506 503.664 168.262 504.84 167.775C506.044 167.288 507.076 166.542 507.936 165.539L509.656 167.517C508.652 168.721 507.391 169.638 505.872 170.269C504.381 170.9 502.733 171.215 500.927 171.215Z" fill="black"/>
<path d="M517.833 171V148.425H533.829V151.091H520.112L520.886 150.317V171H517.833Z" fill="black"/>
<path d="M546.479 171.215C544.301 171.215 542.337 170.728 540.588 169.753C538.868 168.75 537.507 167.388 536.503 165.668C535.5 163.919 534.998 161.927 534.998 159.691C534.998 157.426 535.5 155.434 536.503 153.714C537.507 151.994 538.868 150.647 540.588 149.672C542.308 148.697 544.272 148.21 546.479 148.21C548.715 148.21 550.693 148.697 552.413 149.672C554.162 150.647 555.524 151.994 556.498 153.714C557.502 155.434 558.003 157.426 558.003 159.691C558.003 161.927 557.502 163.919 556.498 165.668C555.524 167.388 554.162 168.75 552.413 169.753C550.665 170.728 548.687 171.215 546.479 171.215ZM546.479 168.506C548.113 168.506 549.561 168.148 550.822 167.431C552.084 166.686 553.073 165.654 553.789 164.335C554.535 162.988 554.907 161.44 554.907 159.691C554.907 157.914 554.535 156.366 553.789 155.047C553.073 153.728 552.084 152.711 550.822 151.994C549.561 151.249 548.128 150.876 546.522 150.876C544.917 150.876 543.484 151.249 542.222 151.994C540.961 152.711 539.958 153.728 539.212 155.047C538.467 156.366 538.094 157.914 538.094 159.691C538.094 161.44 538.467 162.988 539.212 164.335C539.958 165.654 540.961 166.686 542.222 167.431C543.484 168.148 544.903 168.506 546.479 168.506Z" fill="black"/>
<path d="M576.181 171.215C574.232 171.215 572.469 170.771 570.892 169.882C569.315 168.965 568.054 167.66 567.108 165.969C566.191 164.249 565.732 162.156 565.732 159.691C565.732 157.226 566.191 155.147 567.108 153.456C568.025 151.736 569.272 150.432 570.849 149.543C572.426 148.654 574.203 148.21 576.181 148.21C578.331 148.21 580.252 148.697 581.943 149.672C583.663 150.618 585.01 151.965 585.985 153.714C586.96 155.434 587.447 157.426 587.447 159.691C587.447 161.984 586.96 163.991 585.985 165.711C585.01 167.431 583.663 168.778 581.943 169.753C580.252 170.728 578.331 171.215 576.181 171.215ZM564.528 179.342V148.425H567.452V155.219L567.151 159.734L567.581 164.292V179.342H564.528ZM575.966 168.506C577.571 168.506 579.005 168.148 580.266 167.431C581.527 166.686 582.531 165.654 583.276 164.335C584.021 162.988 584.394 161.44 584.394 159.691C584.394 157.942 584.021 156.409 583.276 155.09C582.531 153.771 581.527 152.739 580.266 151.994C579.005 151.249 577.571 150.876 575.966 150.876C574.361 150.876 572.913 151.249 571.623 151.994C570.362 152.739 569.358 153.771 568.613 155.09C567.896 156.409 567.538 157.942 567.538 159.691C567.538 161.44 567.896 162.988 568.613 164.335C569.358 165.654 570.362 166.686 571.623 167.431C572.913 168.148 574.361 168.506 575.966 168.506Z" fill="black"/>
<path d="M594.007 171V148.425H597.06V166.356L612.153 148.425H614.862V171H611.809V153.026L596.759 171H594.007Z" fill="black"/>
<path d="M623.611 171V148.425H626.664V166.356L641.757 148.425H644.466V171H641.413V153.026L626.363 171H623.611Z" fill="black"/>
<path d="M422.343 223V200.425H442.639V223H439.586V202.274L440.36 203.091H424.622L425.396 202.274V223H422.343Z" fill="black"/>
<path d="M460.605 223.215C458.427 223.215 456.463 222.728 454.714 221.753C452.994 220.75 451.633 219.388 450.629 217.668C449.626 215.919 449.124 213.927 449.124 211.691C449.124 209.426 449.626 207.434 450.629 205.714C451.633 203.994 452.994 202.647 454.714 201.672C456.434 200.697 458.398 200.21 460.605 200.21C462.841 200.21 464.819 200.697 466.539 201.672C468.288 202.647 469.65 203.994 470.624 205.714C471.628 207.434 472.129 209.426 472.129 211.691C472.129 213.927 471.628 215.919 470.624 217.668C469.65 219.388 468.288 220.75 466.539 221.753C464.791 222.728 462.813 223.215 460.605 223.215ZM460.605 220.506C462.239 220.506 463.687 220.148 464.948 219.431C466.21 218.686 467.199 217.654 467.915 216.335C468.661 214.988 469.033 213.44 469.033 211.691C469.033 209.914 468.661 208.366 467.915 207.047C467.199 205.728 466.21 204.711 464.948 203.994C463.687 203.249 462.254 202.876 460.648 202.876C459.043 202.876 457.61 203.249 456.348 203.994C455.087 204.711 454.084 205.728 453.338 207.047C452.593 208.366 452.22 209.914 452.22 211.691C452.22 213.44 452.593 214.988 453.338 216.335C454.084 217.654 455.087 218.686 456.348 219.431C457.61 220.148 459.029 220.506 460.605 220.506Z" fill="black"/>
<path d="M495.209 223L485.921 211.82L488.458 210.315L498.821 223H495.209ZM478.654 223V200.425H481.707V223H478.654ZM480.761 212.938V210.315H488.028V212.938H480.761ZM488.716 212.035L485.878 211.605L494.865 200.425H498.176L488.716 212.035Z" fill="black"/>
<path d="M517.238 223V218.012L517.109 217.195V208.853C517.109 206.932 516.564 205.456 515.475 204.424C514.414 203.392 512.823 202.876 510.702 202.876C509.24 202.876 507.849 203.12 506.531 203.607C505.212 204.094 504.094 204.739 503.177 205.542L501.801 203.263C502.947 202.288 504.323 201.543 505.929 201.027C507.534 200.482 509.225 200.21 511.003 200.21C513.927 200.21 516.177 200.941 517.754 202.403C519.359 203.836 520.162 206.029 520.162 208.982V223H517.238ZM509.455 223.215C507.763 223.215 506.287 222.943 505.026 222.398C503.793 221.825 502.847 221.051 502.188 220.076C501.528 219.073 501.199 217.926 501.199 216.636C501.199 215.461 501.471 214.4 502.016 213.454C502.589 212.479 503.506 211.705 504.768 211.132C506.058 210.53 507.778 210.229 509.928 210.229H517.711V212.508H510.014C507.835 212.508 506.316 212.895 505.456 213.669C504.624 214.443 504.209 215.403 504.209 216.55C504.209 217.84 504.71 218.872 505.714 219.646C506.717 220.42 508.122 220.807 509.928 220.807C511.648 220.807 513.124 220.42 514.357 219.646C515.618 218.843 516.535 217.697 517.109 216.206L517.797 218.313C517.223 219.804 516.22 220.993 514.787 221.882C513.382 222.771 511.605 223.215 509.455 223.215Z" fill="black"/>
<path d="M539.543 223V200.425H542.596V210.401H556.829V200.425H559.882V223H556.829V213.024H542.596V223H539.543Z" fill="black"/>
<path d="M578.234 223.215C575.884 223.215 573.82 222.728 572.042 221.753C570.265 220.75 568.875 219.388 567.871 217.668C566.868 215.919 566.366 213.927 566.366 211.691C566.366 209.455 566.839 207.477 567.785 205.757C568.76 204.037 570.079 202.69 571.741 201.715C573.433 200.712 575.325 200.21 577.417 200.21C579.539 200.21 581.416 200.697 583.05 201.672C584.713 202.618 586.017 203.965 586.963 205.714C587.909 207.434 588.382 209.426 588.382 211.691C588.382 211.834 588.368 211.992 588.339 212.164C588.339 212.307 588.339 212.465 588.339 212.637H568.688V210.358H586.705L585.501 211.261C585.501 209.627 585.143 208.179 584.426 206.918C583.738 205.628 582.792 204.625 581.588 203.908C580.384 203.191 578.994 202.833 577.417 202.833C575.869 202.833 574.479 203.191 573.246 203.908C572.014 204.625 571.053 205.628 570.365 206.918C569.677 208.208 569.333 209.684 569.333 211.347V211.82C569.333 213.54 569.706 215.059 570.451 216.378C571.225 217.668 572.286 218.686 573.633 219.431C575.009 220.148 576.572 220.506 578.32 220.506C579.696 220.506 580.972 220.262 582.147 219.775C583.351 219.288 584.383 218.542 585.243 217.539L586.963 219.517C585.96 220.721 584.699 221.638 583.179 222.269C581.689 222.9 580.04 223.215 578.234 223.215Z" fill="black"/>
<path d="M598.433 223V202.274L599.207 203.091H589.876V200.425H610.043V203.091H600.712L601.486 202.274V223H598.433Z" fill="black"/>
<path d="M625.711 223V200.425H628.764V210.401H642.997V200.425H646.05V223H642.997V213.024H628.764V223H625.711Z" fill="black"/>
<path d="M654.727 223V200.425H657.78V218.356L672.873 200.425H675.582V223H672.529V205.026L657.479 223H654.727Z" fill="black"/>
<path d="M431.631 275.215C429.452 275.215 427.488 274.728 425.74 273.753C424.02 272.75 422.658 271.388 421.655 269.668C420.651 267.919 420.15 265.927 420.15 263.691C420.15 261.426 420.651 259.434 421.655 257.714C422.658 255.994 424.02 254.647 425.74 253.672C427.46 252.697 429.423 252.21 431.631 252.21C433.867 252.21 435.845 252.697 437.565 253.672C439.313 254.647 440.675 255.994 441.65 257.714C442.653 259.434 443.155 261.426 443.155 263.691C443.155 265.927 442.653 267.919 441.65 269.668C440.675 271.388 439.313 272.75 437.565 273.753C435.816 274.728 433.838 275.215 431.631 275.215ZM431.631 272.506C433.265 272.506 434.712 272.148 435.974 271.431C437.235 270.686 438.224 269.654 438.941 268.335C439.686 266.988 440.059 265.44 440.059 263.691C440.059 261.914 439.686 260.366 438.941 259.047C438.224 257.728 437.235 256.711 435.974 255.994C434.712 255.249 433.279 254.876 431.674 254.876C430.068 254.876 428.635 255.249 427.374 255.994C426.112 256.711 425.109 257.728 424.364 259.047C423.618 260.366 423.246 261.914 423.246 263.691C423.246 265.44 423.618 266.988 424.364 268.335C425.109 269.654 426.112 270.686 427.374 271.431C428.635 272.148 430.054 272.506 431.631 272.506Z" fill="black"/>
<path d="M465.034 273.538V255.091H454.155L453.897 260.122C453.839 261.641 453.739 263.132 453.596 264.594C453.481 266.056 453.266 267.403 452.951 268.636C452.664 269.84 452.248 270.829 451.704 271.603C451.159 272.348 450.457 272.778 449.597 272.893L446.544 272.334C447.432 272.363 448.163 272.047 448.737 271.388C449.31 270.7 449.754 269.768 450.07 268.593C450.385 267.418 450.614 266.085 450.758 264.594C450.901 263.075 451.016 261.527 451.102 259.95L451.403 252.425H468.087V273.538H465.034ZM445.598 280.461V272.334H471.613V280.461H468.732V275H448.479V280.461H445.598Z" fill="black"/>
<path d="M477.562 275V252.425H480.615V262.401H494.848V252.425H497.901V275H494.848V265.024H480.615V275H477.562Z" fill="black"/>
<path d="M515.867 275.215C513.688 275.215 511.725 274.728 509.976 273.753C508.256 272.75 506.894 271.388 505.891 269.668C504.888 267.919 504.386 265.927 504.386 263.691C504.386 261.426 504.888 259.434 505.891 257.714C506.894 255.994 508.256 254.647 509.976 253.672C511.696 252.697 513.66 252.21 515.867 252.21C518.103 252.21 520.081 252.697 521.801 253.672C523.55 254.647 524.911 255.994 525.886 257.714C526.889 259.434 527.391 261.426 527.391 263.691C527.391 265.927 526.889 267.919 525.886 269.668C524.911 271.388 523.55 272.75 521.801 273.753C520.052 274.728 518.074 275.215 515.867 275.215ZM515.867 272.506C517.501 272.506 518.949 272.148 520.21 271.431C521.471 270.686 522.46 269.654 523.177 268.335C523.922 266.988 524.295 265.44 524.295 263.691C524.295 261.914 523.922 260.366 523.177 259.047C522.46 257.728 521.471 256.711 520.21 255.994C518.949 255.249 517.515 254.876 515.91 254.876C514.305 254.876 512.871 255.249 511.61 255.994C510.349 256.711 509.345 257.728 508.6 259.047C507.855 260.366 507.482 261.914 507.482 263.691C507.482 265.44 507.855 266.988 508.6 268.335C509.345 269.654 510.349 270.686 511.61 271.431C512.871 272.148 514.29 272.506 515.867 272.506Z" fill="black"/>
<path d="M533.916 275V252.425H536.969V270.356L552.062 252.425H554.771V275H551.718V257.026L536.668 275H533.916ZM544.15 249.157C542.258 249.157 540.724 248.684 539.549 247.738C538.402 246.763 537.8 245.373 537.743 243.567H539.936C539.964 244.714 540.366 245.617 541.14 246.276C541.914 246.935 542.917 247.265 544.15 247.265C545.382 247.265 546.386 246.935 547.16 246.276C547.963 245.617 548.378 244.714 548.407 243.567H550.6C550.571 245.373 549.969 246.763 548.794 247.738C547.618 248.684 546.07 249.157 544.15 249.157Z" fill="black"/>
<path d="M422.73 335.557C421.669 335.557 420.651 335.385 419.677 335.041C418.731 334.697 417.914 334.181 417.226 333.493L418.645 331.214C419.218 331.759 419.834 332.174 420.494 332.461C421.182 332.776 421.941 332.934 422.773 332.934C423.776 332.934 424.636 332.647 425.353 332.074C426.098 331.529 426.8 330.555 427.46 329.15L428.922 325.839L429.266 325.366L438.554 304.425H441.564L430.255 329.709C429.624 331.171 428.922 332.332 428.148 333.192C427.402 334.052 426.585 334.654 425.697 334.998C424.808 335.371 423.819 335.557 422.73 335.557ZM428.75 327.645L418.344 304.425H421.526L430.728 325.151L428.75 327.645Z" fill="black"/>
<path d="M455.15 327.215C452.914 327.215 450.908 326.728 449.13 325.753C447.382 324.75 446.006 323.388 445.002 321.668C443.999 319.919 443.497 317.927 443.497 315.691C443.497 313.426 443.999 311.434 445.002 309.714C446.006 307.994 447.382 306.647 449.13 305.672C450.908 304.697 452.914 304.21 455.15 304.21C457.071 304.21 458.805 304.583 460.353 305.328C461.901 306.073 463.12 307.191 464.008 308.682L461.729 310.23C460.955 309.083 459.995 308.238 458.848 307.693C457.702 307.148 456.455 306.876 455.107 306.876C453.502 306.876 452.054 307.249 450.764 307.994C449.474 308.711 448.457 309.728 447.711 311.047C446.966 312.366 446.593 313.914 446.593 315.691C446.593 317.468 446.966 319.016 447.711 320.335C448.457 321.654 449.474 322.686 450.764 323.431C452.054 324.148 453.502 324.506 455.107 324.506C456.455 324.506 457.702 324.234 458.848 323.689C459.995 323.144 460.955 322.313 461.729 321.195L464.008 322.743C463.12 324.205 461.901 325.323 460.353 326.097C458.805 326.842 457.071 327.215 455.15 327.215Z" fill="black"/>
<path d="M464.994 326.957L465.209 324.334C465.41 324.363 465.596 324.406 465.768 324.463C465.969 324.492 466.141 324.506 466.284 324.506C467.201 324.506 467.932 324.162 468.477 323.474C469.05 322.786 469.48 321.869 469.767 320.722C470.054 319.575 470.254 318.285 470.369 316.852C470.484 315.39 470.584 313.928 470.67 312.466L471.057 304.425H487.612V327H484.559V306.188L485.333 307.091H473.035L473.766 306.145L473.422 312.681C473.336 314.63 473.178 316.494 472.949 318.271C472.748 320.048 472.419 321.611 471.96 322.958C471.53 324.305 470.928 325.366 470.154 326.14C469.38 326.885 468.391 327.258 467.187 327.258C466.843 327.258 466.485 327.229 466.112 327.172C465.768 327.115 465.395 327.043 464.994 326.957Z" fill="black"/>
<path d="M496.678 335.557C495.617 335.557 494.599 335.385 493.625 335.041C492.679 334.697 491.862 334.181 491.174 333.493L492.593 331.214C493.166 331.759 493.782 332.174 494.442 332.461C495.13 332.776 495.889 332.934 496.721 332.934C497.724 332.934 498.584 332.647 499.301 332.074C500.046 331.529 500.748 330.555 501.408 329.15L502.87 325.839L503.214 325.366L512.502 304.425H515.512L504.203 329.709C503.572 331.171 502.87 332.332 502.096 333.192C501.35 334.052 500.533 334.654 499.645 334.998C498.756 335.371 497.767 335.557 496.678 335.557ZM502.698 327.645L492.292 304.425H495.474L504.676 325.151L502.698 327.645Z" fill="black"/>
<path d="M520.268 327V304.425H536.264V307.091H522.547L523.321 306.317V327H520.268Z" fill="black"/>
<path d="M540.677 327V304.425H543.73V322.356L558.823 304.425H561.532V327H558.479V309.026L543.429 327H540.677Z" fill="black"/>
<path d="M581.75 308.897C581.119 308.897 580.575 308.668 580.116 308.209C579.686 307.75 579.471 307.191 579.471 306.532C579.471 305.844 579.686 305.285 580.116 304.855C580.575 304.425 581.119 304.21 581.75 304.21C582.381 304.21 582.911 304.425 583.341 304.855C583.8 305.285 584.029 305.844 584.029 306.532C584.029 307.191 583.8 307.75 583.341 308.209C582.911 308.668 582.381 308.897 581.75 308.897ZM581.75 327.215C581.119 327.215 580.575 326.986 580.116 326.527C579.686 326.068 579.471 325.509 579.471 324.85C579.471 324.162 579.686 323.603 580.116 323.173C580.575 322.743 581.119 322.528 581.75 322.528C582.381 322.528 582.911 322.743 583.341 323.173C583.8 323.603 584.029 324.162 584.029 324.85C584.029 325.509 583.8 326.068 583.341 326.527C582.911 326.986 582.381 327.215 581.75 327.215Z" fill="black"/>
<path d="M595.764 335.342C594.188 332.733 592.955 329.723 592.066 326.312C591.206 322.872 590.776 319.174 590.776 315.218C590.776 311.262 591.206 307.564 592.066 304.124C592.955 300.655 594.188 297.645 595.764 295.094H598.688C596.997 298.047 595.75 301.186 594.947 304.511C594.173 307.808 593.786 311.377 593.786 315.218C593.786 319.059 594.173 322.643 594.947 325.968C595.75 329.265 596.997 332.389 598.688 335.342H595.764Z" fill="black"/>
<path d="M211.019 126.001L216.019 126.501C224.23 22.2812 62.487 7.33423 61.5003 126.5L66.0168 126.5C66.0164 15.5022 218.511 28.9872 211.019 126.001Z" fill="#474F70"/>
</svg>
