<?xml version="1.0" encoding="UTF-8" standalone="no" ?>
<!DOCTYPE svg PUBLIC "-//W3C//DTD SVG 1.1//EN" "http://www.w3.org/Graphics/SVG/1.1/DTD/svg11.dtd">
<svg xmlns="http://www.w3.org/2000/svg" xmlns:xlink="http://www.w3.org/1999/xlink" version="1.1" width="400" height="400" viewBox="0 0 400 400" xml:space="preserve">
<desc>Created with Fabric.js 3.6.2</desc>
<defs>
</defs>
<g transform="matrix(4.17 0 0 4.17 200 264.58)" id="Layers_2"  >
<path style="stroke: none; stroke-width: 1; stroke-dasharray: none; stroke-linecap: butt; stroke-dashoffset: 0; stroke-linejoin: miter; stroke-miterlimit: 4; fill: rgb(0,137,123); fill-rule: nonzero; opacity: 1;"  transform=" translate(-24, -39.5)" d="M 29 33 l -5 1 l -5 -1 c 0 0 -11 1.984 -11 13 h 32 C 40 35.023 29 33 29 33" stroke-linecap="round" />
</g>
<g transform="matrix(4.17 0 0 4.17 200 237.5)" id="Layers_2"  >
<path style="stroke: none; stroke-width: 1; stroke-dasharray: none; stroke-linecap: butt; stroke-dashoffset: 0; stroke-linejoin: miter; stroke-miterlimit: 4; fill: rgb(255,152,0); fill-rule: nonzero; opacity: 1;"  transform=" translate(-24, -33)" d="M 24 39 l -5 -6 v -6 h 10 v 6 L 24 39 z" stroke-linecap="round" />
</g>
<g transform="matrix(4.17 0 0 4.17 200 187.5)" id="Layers_2"  >
<path style="stroke: none; stroke-width: 1; stroke-dasharray: none; stroke-linecap: butt; stroke-dashoffset: 0; stroke-linejoin: miter; stroke-miterlimit: 4; fill: rgb(255,167,38); fill-rule: nonzero; opacity: 1;"  transform=" translate(-24, -21)" d="M 35 21 c 0 1.105 -0.895 2 -2 2 s -2 -0.895 -2 -2 s 0.895 -2 2 -2 S 35 19.895 35 21 M 17 21 c 0 -1.105 -0.895 -2 -2 -2 s -2 0.895 -2 2 s 0.895 2 2 2 S 17 22.105 17 21" stroke-linecap="round" />
</g>
<g transform="matrix(4.17 0 0 4.17 200 185.87)" id="Layers_2"  >
<path style="stroke: none; stroke-width: 1; stroke-dasharray: none; stroke-linecap: butt; stroke-dashoffset: 0; stroke-linejoin: miter; stroke-miterlimit: 4; fill: rgb(255,183,77); fill-rule: nonzero; opacity: 1;"  transform=" translate(-24, -20.61)" d="M 33 15 c 0 -7.637 -18 -4.973 -18 0 v 7 c 0 4.973 4.027 9 9 9 s 9 -4.027 9 -9 V 15 z" stroke-linecap="round" />
</g>
<g transform="matrix(4.17 0 0 4.17 200 156.25)" id="Layers_2"  >
<path style="stroke: none; stroke-width: 1; stroke-dasharray: none; stroke-linecap: butt; stroke-dashoffset: 0; stroke-linejoin: miter; stroke-miterlimit: 4; fill: rgb(121,85,72); fill-rule: nonzero; opacity: 1;"  transform=" translate(-24, -13.5)" d="M 24 6 c -6.074 0 -10 4.926 -10 11 v 2.285 L 16 21 v -5 l 12 -4 l 4 4 v 5 l 2 -1.742 V 17 c 0 -4.023 -1.039 -8.016 -6 -9 l -1 -2 H 24 z" stroke-linecap="round" />
</g>
<g transform="matrix(4.17 0 0 4.17 200 187.5)" id="Layers_2"  >
<path style="stroke: none; stroke-width: 1; stroke-dasharray: none; stroke-linecap: butt; stroke-dashoffset: 0; stroke-linejoin: miter; stroke-miterlimit: 4; fill: rgb(120,71,25); fill-rule: nonzero; opacity: 1;"  transform=" translate(-24, -21)" d="M 27 21 c 0 -0.551 0.449 -1 1 -1 s 1 0.449 1 1 s -0.449 1 -1 1 S 27 21.551 27 21 M 19 21 c 0 0.551 0.449 1 1 1 s 1 -0.449 1 -1 s -0.449 -1 -1 -1 S 19 20.449 19 21" stroke-linecap="round" />
</g>
<g transform="matrix(4.17 0 0 4.17 200 265.1)" id="Layers_2"  >
<path style="stroke: none; stroke-width: 1; stroke-dasharray: none; stroke-linecap: butt; stroke-dashoffset: 0; stroke-linejoin: miter; stroke-miterlimit: 4; fill: rgb(249,168,37); fill-rule: nonzero; opacity: 1;"  transform=" translate(-24, -39.63)" d="M 30 33.254 V 42 H 18 v -8.75 c -0.945 0.281 -2.445 0.824 -4 1.793 V 46 h 20 V 35.059 C 32.445 34.086 30.945 33.535 30 33.254 z" stroke-linecap="round" />
</g>
<g transform="matrix(4.17 0 0 4.17 200 268.75)" id="Layers_2"  >
<path style="stroke: none; stroke-width: 1; stroke-dasharray: none; stroke-linecap: butt; stroke-dashoffset: 0; stroke-linejoin: miter; stroke-miterlimit: 4; fill: rgb(38,50,56); fill-rule: nonzero; opacity: 1;"  transform=" translate(-24, -40.5)" d="M 18 42 h -4 v -3 h 4 V 42 z M 34 39 h -4 v 3 h 4 V 39 z" stroke-linecap="round" />
</g>
<g transform="matrix(4.17 0 0 4.17 200 147.92)" id="Layers_2"  >
<path style="stroke: none; stroke-width: 1; stroke-dasharray: none; stroke-linecap: butt; stroke-dashoffset: 0; stroke-linejoin: miter; stroke-miterlimit: 4; fill: rgb(255,87,34); fill-rule: nonzero; opacity: 1;"  transform=" translate(-24, -11.5)" d="M 34 15 v -1 c 0 -4.973 -4.027 -9 -9 -9 h -2 c -4.973 0 -9 4.027 -9 9 v 1 h -2 v 3 h 24 v -3 H 34 z" stroke-linecap="round" />
</g>
<g transform="matrix(4.17 0 0 4.17 200 139.58)" id="Layers_2"  >
<path style="stroke: none; stroke-width: 1; stroke-dasharray: none; stroke-linecap: butt; stroke-dashoffset: 0; stroke-linejoin: miter; stroke-miterlimit: 4; fill: rgb(216,67,21); fill-rule: nonzero; opacity: 1;"  transform=" translate(-24, -9.5)" d="M 21 4 h 6 v 11 h -6 V 4 z" stroke-linecap="round" />
</g>
<g transform="matrix(4.17 0 0 4.17 199.97 212.15)" id="Layers_2"  >
<path style="stroke: none; stroke-width: 1; stroke-dasharray: none; stroke-linecap: butt; stroke-dashoffset: 0; stroke-linejoin: miter; stroke-miterlimit: 4; fill: rgb(121,85,72); fill-rule: nonzero; opacity: 1;"  transform=" translate(-23.99, -26.91)" d="M 32.988 21.469 c 0 0 -0.833 1.803 -1.668 2.454 c -0.535 0.452 -2.143 1.505 -3.157 1.054 c -1.25 -0.552 -2.978 -1.003 -4.169 -1.003 l -0.063 -0.001 c -1.191 0 -2.857 0.45 -4.106 1.003 c -1.015 0.451 -2.622 -0.601 -3.157 -1.054 C 15.833 23.271 15 21.468 15 21.468 s -0.759 9.797 8.993 10.893 v 0.001 C 33.745 31.266 32.988 21.469 32.988 21.469 z M 26.971 28.99 c -1.19 0 -1.191 -1.504 -2.976 -1.505 v -0.001 c -1.787 0 -1.787 1.505 -2.978 1.505 c -1.787 0 -0.596 -2.006 -0.596 -2.508 c 0 -0.501 3.573 -1.003 3.573 -1.003 v 0.001 c 0 0 3.573 0.501 3.573 1.003 C 27.567 26.983 28.758 28.99 26.971 28.99 z" stroke-linecap="round" />
</g>
</svg>